<svg width="50" height="47" viewBox="0 0 50 47" fill="none" xmlns="http://www.w3.org/2000/svg">
<path d="M0 0H50V47H0V0Z" fill="white"/>
<path d="M25 37C32.1797 37 38 31.1797 38 24C38 16.8203 32.1797 11 25 11C17.8203 11 12 16.8203 12 24C12 31.1797 17.8203 37 25 37Z" fill="#F4F4F4"/>
<path fill-rule="evenodd" clip-rule="evenodd" d="M20.6016 22.0013C20.2582 22.0013 20.0039 22.2677 20.0039 22.5671V28.4329C20.0039 28.7323 20.2582 28.9987 20.6016 28.9987H29.3984C29.7418 28.9987 29.9961 28.7323 29.9961 28.4329V22.5671C29.9961 22.2677 29.7418 22.0013 29.3984 22.0013H20.6016ZM19 22.5671C19 21.6885 19.7304 21 20.6016 21H29.3984C30.2696 21 31 21.6885 31 22.5671V28.4329C31 29.3115 30.2696 30 29.3984 30H20.6016C19.7304 30 19 29.3115 19 28.4329V22.5671Z" fill="#C4C4C4"/>
<path fill-rule="evenodd" clip-rule="evenodd" d="M22.1415 18.1514C22.3341 17.9535 22.6506 17.949 22.8486 18.1415L25.2383 20.4654L27.628 18.1415C27.826 17.949 28.1425 17.9535 28.335 18.1514C28.5275 18.3494 28.5231 18.6659 28.3251 18.8585L25.5869 21.5212C25.3928 21.71 25.0838 21.71 24.8897 21.5212L22.1514 18.8585C21.9535 18.6659 21.949 18.3494 22.1415 18.1514Z" fill="#C4C4C4"/>
</svg>
