<svg width="52" height="12" viewBox="0 0 52 12" fill="none" xmlns="http://www.w3.org/2000/svg">
<ellipse cx="49.4161" cy="6.5" rx="2.41611" ry="2.5" fill="#666666"/>
<path d="M2.99658 9.08789C2.28467 9.08789 1.72217 8.87109 1.30908 8.4375C0.898926 8.00391 0.693848 7.40186 0.693848 6.63135C0.693848 5.85498 0.884277 5.23828 1.26514 4.78125C1.64893 4.32422 2.16309 4.0957 2.80762 4.0957C3.41113 4.0957 3.88867 4.29492 4.24023 4.69336C4.5918 5.08887 4.76758 5.61182 4.76758 6.26221V6.72363H1.44971C1.46436 7.28906 1.60645 7.71826 1.87598 8.01123C2.14844 8.3042 2.53076 8.45068 3.02295 8.45068C3.5415 8.45068 4.0542 8.34229 4.56104 8.12549V8.77588C4.30322 8.88721 4.05859 8.96631 3.82715 9.01318C3.59863 9.06299 3.32178 9.08789 2.99658 9.08789ZM2.79883 4.70654C2.41211 4.70654 2.10303 4.83252 1.87158 5.08447C1.64307 5.33643 1.5083 5.68506 1.46729 6.13037H3.98535C3.98535 5.67041 3.88281 5.31885 3.67773 5.07568C3.47266 4.82959 3.17969 4.70654 2.79883 4.70654ZM9.31152 9V5.88428C9.31152 5.4917 9.22217 5.19873 9.04346 5.00537C8.86475 4.81201 8.58496 4.71533 8.2041 4.71533C7.7002 4.71533 7.33105 4.85156 7.09668 5.12402C6.8623 5.39648 6.74512 5.84619 6.74512 6.47314V9H6.01562V4.18359H6.60889L6.72754 4.84277H6.7627C6.91211 4.60547 7.12158 4.42236 7.39111 4.29346C7.66064 4.16162 7.96094 4.0957 8.29199 4.0957C8.87207 4.0957 9.30859 4.23633 9.60156 4.51758C9.89453 4.7959 10.041 5.24268 10.041 5.85791V9H9.31152ZM13.4688 9.08789C12.7715 9.08789 12.231 8.87402 11.8472 8.44629C11.4663 8.01562 11.2759 7.40771 11.2759 6.62256C11.2759 5.81689 11.4692 5.19434 11.856 4.75488C12.2456 4.31543 12.7993 4.0957 13.5171 4.0957C13.7485 4.0957 13.98 4.12061 14.2114 4.17041C14.4429 4.22021 14.6245 4.27881 14.7563 4.34619L14.5322 4.96582C14.3711 4.90137 14.1953 4.84863 14.0049 4.80762C13.8145 4.76367 13.646 4.7417 13.4995 4.7417C12.521 4.7417 12.0317 5.36572 12.0317 6.61377C12.0317 7.20557 12.1504 7.65967 12.3877 7.97607C12.6279 8.29248 12.9824 8.45068 13.4512 8.45068C13.8525 8.45068 14.2642 8.36426 14.686 8.19141V8.8374C14.3638 9.00439 13.958 9.08789 13.4688 9.08789ZM17.8677 9.08789C17.1558 9.08789 16.5933 8.87109 16.1802 8.4375C15.77 8.00391 15.5649 7.40186 15.5649 6.63135C15.5649 5.85498 15.7554 5.23828 16.1362 4.78125C16.52 4.32422 17.0342 4.0957 17.6787 4.0957C18.2822 4.0957 18.7598 4.29492 19.1113 4.69336C19.4629 5.08887 19.6387 5.61182 19.6387 6.26221V6.72363H16.3208C16.3354 7.28906 16.4775 7.71826 16.7471 8.01123C17.0195 8.3042 17.4019 8.45068 17.894 8.45068C18.4126 8.45068 18.9253 8.34229 19.4321 8.12549V8.77588C19.1743 8.88721 18.9297 8.96631 18.6982 9.01318C18.4697 9.06299 18.1929 9.08789 17.8677 9.08789ZM17.6699 4.70654C17.2832 4.70654 16.9741 4.83252 16.7427 5.08447C16.5142 5.33643 16.3794 5.68506 16.3384 6.13037H18.8564C18.8564 5.67041 18.7539 5.31885 18.5488 5.07568C18.3438 4.82959 18.0508 4.70654 17.6699 4.70654ZM23.084 4.0957C23.2979 4.0957 23.4897 4.11328 23.6597 4.14844L23.5586 4.8252C23.3594 4.78125 23.1836 4.75928 23.0312 4.75928C22.6416 4.75928 22.3076 4.91748 22.0293 5.23389C21.7539 5.55029 21.6162 5.94434 21.6162 6.41602V9H20.8867V4.18359H21.4888L21.5723 5.07568H21.6074C21.7861 4.76221 22.0015 4.52051 22.2534 4.35059C22.5054 4.18066 22.7822 4.0957 23.084 4.0957ZM26.7578 4.0957C26.9717 4.0957 27.1636 4.11328 27.3335 4.14844L27.2324 4.8252C27.0332 4.78125 26.8574 4.75928 26.7051 4.75928C26.3154 4.75928 25.9814 4.91748 25.7031 5.23389C25.4277 5.55029 25.29 5.94434 25.29 6.41602V9H24.5605V4.18359H25.1626L25.2461 5.07568H25.2812C25.46 4.76221 25.6753 4.52051 25.9272 4.35059C26.1792 4.18066 26.4561 4.0957 26.7578 4.0957ZM31.1963 9L31.0513 8.31445H31.0161C30.7759 8.61621 30.5356 8.82129 30.2954 8.92969C30.0581 9.03516 29.7607 9.08789 29.4033 9.08789C28.9258 9.08789 28.5508 8.96484 28.2783 8.71875C28.0088 8.47266 27.874 8.12256 27.874 7.66846C27.874 6.6958 28.6519 6.18604 30.2075 6.13916L31.0249 6.11279V5.81396C31.0249 5.43604 30.9429 5.15771 30.7788 4.979C30.6177 4.79736 30.3584 4.70654 30.001 4.70654C29.5996 4.70654 29.1455 4.82959 28.6387 5.07568L28.4146 4.51758C28.6519 4.38867 28.9111 4.2876 29.1924 4.21436C29.4766 4.14111 29.7607 4.10449 30.0449 4.10449C30.6191 4.10449 31.0439 4.23193 31.3193 4.48682C31.5977 4.7417 31.7368 5.15039 31.7368 5.71289V9H31.1963ZM29.5483 8.48584C30.0024 8.48584 30.3584 8.36133 30.6162 8.1123C30.877 7.86328 31.0073 7.51465 31.0073 7.06641V6.63135L30.2778 6.66211C29.6978 6.68262 29.2788 6.77344 29.021 6.93457C28.7661 7.09277 28.6387 7.34033 28.6387 7.67725C28.6387 7.94092 28.7178 8.1416 28.876 8.2793C29.0371 8.41699 29.2612 8.48584 29.5483 8.48584ZM36.5225 8.354H36.4829C36.146 8.84326 35.6421 9.08789 34.9712 9.08789C34.3413 9.08789 33.8506 8.87256 33.499 8.44189C33.1504 8.01123 32.9761 7.39893 32.9761 6.60498C32.9761 5.81104 33.1519 5.19434 33.5034 4.75488C33.855 4.31543 34.3442 4.0957 34.9712 4.0957C35.6245 4.0957 36.1255 4.33301 36.4741 4.80762H36.5312L36.5005 4.46045L36.4829 4.12207V2.16211H37.2124V9H36.6191L36.5225 8.354ZM35.0635 8.47705C35.5615 8.47705 35.9219 8.34229 36.1445 8.07275C36.3701 7.80029 36.4829 7.3623 36.4829 6.75879V6.60498C36.4829 5.92236 36.3687 5.43604 36.1401 5.146C35.9146 4.85303 35.5527 4.70654 35.0547 4.70654C34.627 4.70654 34.2988 4.87354 34.0703 5.20752C33.8447 5.53857 33.7319 6.00732 33.7319 6.61377C33.7319 7.229 33.8447 7.69336 34.0703 8.00684C34.2959 8.32031 34.627 8.47705 35.0635 8.47705ZM41.7256 9L41.5806 8.31445H41.5454C41.3052 8.61621 41.0649 8.82129 40.8247 8.92969C40.5874 9.03516 40.29 9.08789 39.9326 9.08789C39.4551 9.08789 39.0801 8.96484 38.8076 8.71875C38.5381 8.47266 38.4033 8.12256 38.4033 7.66846C38.4033 6.6958 39.1812 6.18604 40.7368 6.13916L41.5542 6.11279V5.81396C41.5542 5.43604 41.4722 5.15771 41.3081 4.979C41.147 4.79736 40.8877 4.70654 40.5303 4.70654C40.1289 4.70654 39.6748 4.82959 39.168 5.07568L38.9438 4.51758C39.1812 4.38867 39.4404 4.2876 39.7217 4.21436C40.0059 4.14111 40.29 4.10449 40.5742 4.10449C41.1484 4.10449 41.5732 4.23193 41.8486 4.48682C42.127 4.7417 42.2661 5.15039 42.2661 5.71289V9H41.7256ZM40.0776 8.48584C40.5317 8.48584 40.8877 8.36133 41.1455 8.1123C41.4062 7.86328 41.5366 7.51465 41.5366 7.06641V6.63135L40.8071 6.66211C40.2271 6.68262 39.8081 6.77344 39.5503 6.93457C39.2954 7.09277 39.168 7.34033 39.168 7.67725C39.168 7.94092 39.2471 8.1416 39.4053 8.2793C39.5664 8.41699 39.7905 8.48584 40.0776 8.48584Z" fill="#181818"/>
</svg>
