<svg width="51" height="12" viewBox="0 0 51 12" fill="none" xmlns="http://www.w3.org/2000/svg">
<ellipse cx="48.4161" cy="6.5" rx="2.41611" ry="2.5" fill="#FAC915"/>
<path d="M4.1543 9L4.00928 8.31445H3.97412C3.73389 8.61621 3.49365 8.82129 3.25342 8.92969C3.01611 9.03516 2.71875 9.08789 2.36133 9.08789C1.88379 9.08789 1.50879 8.96484 1.23633 8.71875C0.966797 8.47266 0.832031 8.12256 0.832031 7.66846C0.832031 6.6958 1.60986 6.18604 3.16553 6.13916L3.98291 6.11279V5.81396C3.98291 5.43604 3.90088 5.15771 3.73682 4.979C3.57568 4.79736 3.31641 4.70654 2.95898 4.70654C2.55762 4.70654 2.10352 4.82959 1.59668 5.07568L1.37256 4.51758C1.60986 4.38867 1.86914 4.2876 2.15039 4.21436C2.43457 4.14111 2.71875 4.10449 3.00293 4.10449C3.57715 4.10449 4.00195 4.23193 4.27734 4.48682C4.55566 4.7417 4.69482 5.15039 4.69482 5.71289V9H4.1543ZM2.50635 8.48584C2.96045 8.48584 3.31641 8.36133 3.57422 8.1123C3.83496 7.86328 3.96533 7.51465 3.96533 7.06641V6.63135L3.23584 6.66211C2.65576 6.68262 2.23682 6.77344 1.979 6.93457C1.72412 7.09277 1.59668 7.34033 1.59668 7.67725C1.59668 7.94092 1.67578 8.1416 1.83398 8.2793C1.99512 8.41699 2.21924 8.48584 2.50635 8.48584ZM10.144 4.18359V4.64502L9.25195 4.75049C9.33398 4.85303 9.40723 4.98779 9.47168 5.15479C9.53613 5.31885 9.56836 5.50488 9.56836 5.71289C9.56836 6.18457 9.40723 6.56104 9.08496 6.84229C8.7627 7.12354 8.32031 7.26416 7.75781 7.26416C7.61426 7.26416 7.47949 7.25244 7.35352 7.229C7.04297 7.39307 6.8877 7.59961 6.8877 7.84863C6.8877 7.98047 6.94189 8.07861 7.05029 8.14307C7.15869 8.20459 7.34473 8.23535 7.6084 8.23535H8.46094C8.98242 8.23535 9.38232 8.34521 9.66064 8.56494C9.94189 8.78467 10.0825 9.104 10.0825 9.52295C10.0825 10.0562 9.86865 10.4619 9.44092 10.7402C9.01318 11.0215 8.38916 11.1621 7.56885 11.1621C6.93896 11.1621 6.45264 11.0449 6.10986 10.8105C5.77002 10.5762 5.6001 10.2451 5.6001 9.81738C5.6001 9.52441 5.69385 9.271 5.88135 9.05713C6.06885 8.84326 6.33252 8.69824 6.67236 8.62207C6.54932 8.56641 6.44531 8.47998 6.36035 8.36279C6.27832 8.24561 6.2373 8.10938 6.2373 7.9541C6.2373 7.77832 6.28418 7.62451 6.37793 7.49268C6.47168 7.36084 6.61963 7.2334 6.82178 7.11035C6.57275 7.00781 6.36914 6.8335 6.21094 6.5874C6.05566 6.34131 5.97803 6.06006 5.97803 5.74365C5.97803 5.21631 6.13623 4.81055 6.45264 4.52637C6.76904 4.23926 7.21729 4.0957 7.79736 4.0957C8.04932 4.0957 8.27637 4.125 8.47852 4.18359H10.144ZM6.30322 9.80859C6.30322 10.0693 6.41309 10.2671 6.63281 10.4019C6.85254 10.5366 7.16748 10.604 7.57764 10.604C8.18994 10.604 8.64258 10.5117 8.93555 10.3271C9.23145 10.1455 9.37939 9.89795 9.37939 9.58447C9.37939 9.32373 9.29883 9.14209 9.1377 9.03955C8.97656 8.93994 8.67334 8.89014 8.22803 8.89014H7.35352C7.02246 8.89014 6.76465 8.96924 6.58008 9.12744C6.39551 9.28564 6.30322 9.5127 6.30322 9.80859ZM6.69873 5.72607C6.69873 6.06299 6.79395 6.31787 6.98438 6.49072C7.1748 6.66357 7.43994 6.75 7.77979 6.75C8.4917 6.75 8.84766 6.4043 8.84766 5.71289C8.84766 4.98926 8.4873 4.62744 7.7666 4.62744C7.42383 4.62744 7.16016 4.71973 6.97559 4.9043C6.79102 5.08887 6.69873 5.36279 6.69873 5.72607ZM13.1675 9.08789C12.4556 9.08789 11.8931 8.87109 11.48 8.4375C11.0698 8.00391 10.8647 7.40186 10.8647 6.63135C10.8647 5.85498 11.0552 5.23828 11.436 4.78125C11.8198 4.32422 12.334 4.0957 12.9785 4.0957C13.582 4.0957 14.0596 4.29492 14.4111 4.69336C14.7627 5.08887 14.9385 5.61182 14.9385 6.26221V6.72363H11.6206C11.6353 7.28906 11.7773 7.71826 12.0469 8.01123C12.3193 8.3042 12.7017 8.45068 13.1938 8.45068C13.7124 8.45068 14.2251 8.34229 14.7319 8.12549V8.77588C14.4741 8.88721 14.2295 8.96631 13.998 9.01318C13.7695 9.06299 13.4927 9.08789 13.1675 9.08789ZM12.9697 4.70654C12.583 4.70654 12.2739 4.83252 12.0425 5.08447C11.814 5.33643 11.6792 5.68506 11.6382 6.13037H14.1562C14.1562 5.67041 14.0537 5.31885 13.8486 5.07568C13.6436 4.82959 13.3506 4.70654 12.9697 4.70654ZM19.4824 9V5.88428C19.4824 5.4917 19.3931 5.19873 19.2144 5.00537C19.0356 4.81201 18.7559 4.71533 18.375 4.71533C17.8711 4.71533 17.502 4.85156 17.2676 5.12402C17.0332 5.39648 16.916 5.84619 16.916 6.47314V9H16.1865V4.18359H16.7798L16.8984 4.84277H16.9336C17.083 4.60547 17.2925 4.42236 17.562 4.29346C17.8315 4.16162 18.1318 4.0957 18.4629 4.0957C19.043 4.0957 19.4795 4.23633 19.7725 4.51758C20.0654 4.7959 20.2119 5.24268 20.2119 5.85791V9H19.4824ZM24.9932 8.354H24.9536C24.6167 8.84326 24.1128 9.08789 23.4419 9.08789C22.812 9.08789 22.3213 8.87256 21.9697 8.44189C21.6211 8.01123 21.4468 7.39893 21.4468 6.60498C21.4468 5.81104 21.6226 5.19434 21.9741 4.75488C22.3257 4.31543 22.8149 4.0957 23.4419 4.0957C24.0952 4.0957 24.5962 4.33301 24.9448 4.80762H25.002L24.9712 4.46045L24.9536 4.12207V2.16211H25.6831V9H25.0898L24.9932 8.354ZM23.5342 8.47705C24.0322 8.47705 24.3926 8.34229 24.6152 8.07275C24.8408 7.80029 24.9536 7.3623 24.9536 6.75879V6.60498C24.9536 5.92236 24.8394 5.43604 24.6108 5.146C24.3853 4.85303 24.0234 4.70654 23.5254 4.70654C23.0977 4.70654 22.7695 4.87354 22.541 5.20752C22.3154 5.53857 22.2026 6.00732 22.2026 6.61377C22.2026 7.229 22.3154 7.69336 22.541 8.00684C22.7666 8.32031 23.0977 8.47705 23.5342 8.47705ZM30.1963 9L30.0513 8.31445H30.0161C29.7759 8.61621 29.5356 8.82129 29.2954 8.92969C29.0581 9.03516 28.7607 9.08789 28.4033 9.08789C27.9258 9.08789 27.5508 8.96484 27.2783 8.71875C27.0088 8.47266 26.874 8.12256 26.874 7.66846C26.874 6.6958 27.6519 6.18604 29.2075 6.13916L30.0249 6.11279V5.81396C30.0249 5.43604 29.9429 5.15771 29.7788 4.979C29.6177 4.79736 29.3584 4.70654 29.001 4.70654C28.5996 4.70654 28.1455 4.82959 27.6387 5.07568L27.4146 4.51758C27.6519 4.38867 27.9111 4.2876 28.1924 4.21436C28.4766 4.14111 28.7607 4.10449 29.0449 4.10449C29.6191 4.10449 30.0439 4.23193 30.3193 4.48682C30.5977 4.7417 30.7368 5.15039 30.7368 5.71289V9H30.1963ZM28.5483 8.48584C29.0024 8.48584 29.3584 8.36133 29.6162 8.1123C29.877 7.86328 30.0073 7.51465 30.0073 7.06641V6.63135L29.2778 6.66211C28.6978 6.68262 28.2788 6.77344 28.021 6.93457C27.7661 7.09277 27.6387 7.34033 27.6387 7.67725C27.6387 7.94092 27.7178 8.1416 27.876 8.2793C28.0371 8.41699 28.2612 8.48584 28.5483 8.48584ZM35.5225 8.354H35.4829C35.146 8.84326 34.6421 9.08789 33.9712 9.08789C33.3413 9.08789 32.8506 8.87256 32.499 8.44189C32.1504 8.01123 31.9761 7.39893 31.9761 6.60498C31.9761 5.81104 32.1519 5.19434 32.5034 4.75488C32.855 4.31543 33.3442 4.0957 33.9712 4.0957C34.6245 4.0957 35.1255 4.33301 35.4741 4.80762H35.5312L35.5005 4.46045L35.4829 4.12207V2.16211H36.2124V9H35.6191L35.5225 8.354ZM34.0635 8.47705C34.5615 8.47705 34.9219 8.34229 35.1445 8.07275C35.3701 7.80029 35.4829 7.3623 35.4829 6.75879V6.60498C35.4829 5.92236 35.3687 5.43604 35.1401 5.146C34.9146 4.85303 34.5527 4.70654 34.0547 4.70654C33.627 4.70654 33.2988 4.87354 33.0703 5.20752C32.8447 5.53857 32.7319 6.00732 32.7319 6.61377C32.7319 7.229 32.8447 7.69336 33.0703 8.00684C33.2959 8.32031 33.627 8.47705 34.0635 8.47705ZM40.7256 9L40.5806 8.31445H40.5454C40.3052 8.61621 40.0649 8.82129 39.8247 8.92969C39.5874 9.03516 39.29 9.08789 38.9326 9.08789C38.4551 9.08789 38.0801 8.96484 37.8076 8.71875C37.5381 8.47266 37.4033 8.12256 37.4033 7.66846C37.4033 6.6958 38.1812 6.18604 39.7368 6.13916L40.5542 6.11279V5.81396C40.5542 5.43604 40.4722 5.15771 40.3081 4.979C40.147 4.79736 39.8877 4.70654 39.5303 4.70654C39.1289 4.70654 38.6748 4.82959 38.168 5.07568L37.9438 4.51758C38.1812 4.38867 38.4404 4.2876 38.7217 4.21436C39.0059 4.14111 39.29 4.10449 39.5742 4.10449C40.1484 4.10449 40.5732 4.23193 40.8486 4.48682C41.127 4.7417 41.2661 5.15039 41.2661 5.71289V9H40.7256ZM39.0776 8.48584C39.5317 8.48584 39.8877 8.36133 40.1455 8.1123C40.4062 7.86328 40.5366 7.51465 40.5366 7.06641V6.63135L39.8071 6.66211C39.2271 6.68262 38.8081 6.77344 38.5503 6.93457C38.2954 7.09277 38.168 7.34033 38.168 7.67725C38.168 7.94092 38.2471 8.1416 38.4053 8.2793C38.5664 8.41699 38.7905 8.48584 39.0776 8.48584Z" fill="#181818"/>
</svg>
