<svg width="43" height="12" viewBox="0 0 43 12" fill="none" xmlns="http://www.w3.org/2000/svg">
<ellipse cx="40.4161" cy="6.5" rx="2.41611" ry="2.5" fill="#007E5A"/>
<path d="M2.01221 9H0.979492V4.13965H2.01221V9ZM0.917969 2.85205C0.917969 2.66748 0.967773 2.52539 1.06738 2.42578C1.16992 2.32617 1.31494 2.27637 1.50244 2.27637C1.68408 2.27637 1.82471 2.32617 1.92432 2.42578C2.02686 2.52539 2.07812 2.66748 2.07812 2.85205C2.07812 3.02783 2.02686 3.16699 1.92432 3.26953C1.82471 3.36914 1.68408 3.41895 1.50244 3.41895C1.31494 3.41895 1.16992 3.36914 1.06738 3.26953C0.967773 3.16699 0.917969 3.02783 0.917969 2.85205ZM7.76904 9H6.73193V6.01172C6.73193 5.63672 6.65576 5.35693 6.50342 5.17236C6.354 4.98779 6.11523 4.89551 5.78711 4.89551C5.35059 4.89551 5.03125 5.02441 4.8291 5.28223C4.62695 5.54004 4.52588 5.97217 4.52588 6.57861V9H3.49316V4.13965H4.30176L4.44678 4.77686H4.49951C4.646 4.54541 4.854 4.3667 5.12354 4.24072C5.39307 4.11475 5.69189 4.05176 6.02002 4.05176C7.18604 4.05176 7.76904 4.64502 7.76904 5.83154V9ZM10.2388 9H9.20605V4.13965H10.2388V9ZM9.14453 2.85205C9.14453 2.66748 9.19434 2.52539 9.29395 2.42578C9.39648 2.32617 9.5415 2.27637 9.729 2.27637C9.91064 2.27637 10.0513 2.32617 10.1509 2.42578C10.2534 2.52539 10.3047 2.66748 10.3047 2.85205C10.3047 3.02783 10.2534 3.16699 10.1509 3.26953C10.0513 3.36914 9.91064 3.41895 9.729 3.41895C9.5415 3.41895 9.39648 3.36914 9.29395 3.26953C9.19434 3.16699 9.14453 3.02783 9.14453 2.85205ZM13.6797 9.08789C12.9443 9.08789 12.3848 8.87402 12.001 8.44629C11.6201 8.01562 11.4297 7.39893 11.4297 6.59619C11.4297 5.77881 11.6289 5.15039 12.0273 4.71094C12.4287 4.27148 13.0073 4.05176 13.7632 4.05176C14.2759 4.05176 14.7373 4.14697 15.1475 4.3374L14.8354 5.16797C14.3989 4.99805 14.0386 4.91309 13.7544 4.91309C12.9136 4.91309 12.4932 5.47119 12.4932 6.5874C12.4932 7.13232 12.5972 7.54248 12.8052 7.81787C13.0161 8.09033 13.3237 8.22656 13.728 8.22656C14.188 8.22656 14.623 8.1123 15.0332 7.88379V8.78467C14.8486 8.89307 14.6509 8.9707 14.4399 9.01758C14.2319 9.06445 13.9785 9.08789 13.6797 9.08789ZM17.2085 9H16.1758V4.13965H17.2085V9ZM16.1143 2.85205C16.1143 2.66748 16.1641 2.52539 16.2637 2.42578C16.3662 2.32617 16.5112 2.27637 16.6987 2.27637C16.8804 2.27637 17.021 2.32617 17.1206 2.42578C17.2231 2.52539 17.2744 2.66748 17.2744 2.85205C17.2744 3.02783 17.2231 3.16699 17.1206 3.26953C17.021 3.36914 16.8804 3.41895 16.6987 3.41895C16.5112 3.41895 16.3662 3.36914 16.2637 3.26953C16.1641 3.16699 16.1143 3.02783 16.1143 2.85205ZM21.7305 9L21.5239 8.32324H21.4888C21.2544 8.61914 21.0186 8.82129 20.7812 8.92969C20.5439 9.03516 20.2393 9.08789 19.8672 9.08789C19.3896 9.08789 19.0161 8.95898 18.7466 8.70117C18.48 8.44336 18.3467 8.07861 18.3467 7.60693C18.3467 7.10596 18.5327 6.72803 18.9048 6.47314C19.2769 6.21826 19.8438 6.0791 20.6055 6.05566L21.4448 6.0293V5.77002C21.4448 5.45947 21.3716 5.22803 21.2251 5.07568C21.0815 4.92041 20.8574 4.84277 20.5527 4.84277C20.3037 4.84277 20.0649 4.87939 19.8364 4.95264C19.6079 5.02588 19.3882 5.1123 19.1772 5.21191L18.8433 4.47363C19.1069 4.33594 19.3955 4.23193 19.709 4.16162C20.0225 4.08838 20.3184 4.05176 20.5967 4.05176C21.2148 4.05176 21.6807 4.18652 21.9941 4.45605C22.3105 4.72559 22.4688 5.14893 22.4688 5.72607V9H21.7305ZM20.1924 8.29688C20.5674 8.29688 20.8677 8.19287 21.0933 7.98486C21.3218 7.77393 21.436 7.47949 21.436 7.10156V6.67969L20.812 6.70605C20.3257 6.72363 19.9712 6.80566 19.7485 6.95215C19.5288 7.0957 19.4189 7.31689 19.4189 7.61572C19.4189 7.83252 19.4834 8.00098 19.6123 8.12109C19.7412 8.23828 19.9346 8.29688 20.1924 8.29688ZM25.5493 9.08789C24.9429 9.08789 24.4697 8.86816 24.1299 8.42871C23.79 7.98926 23.6201 7.37256 23.6201 6.57861C23.6201 5.78174 23.7915 5.16211 24.1343 4.71973C24.48 4.27441 24.9575 4.05176 25.5669 4.05176C26.2056 4.05176 26.6919 4.2876 27.0259 4.75928H27.0786C27.0288 4.41064 27.0039 4.13525 27.0039 3.93311V2.16211H28.041V9H27.2324L27.0522 8.36279H27.0039C26.6729 8.84619 26.188 9.08789 25.5493 9.08789ZM25.8262 8.25293C26.251 8.25293 26.5601 8.13428 26.7534 7.89697C26.9468 7.65674 27.0464 7.26855 27.0522 6.73242V6.5874C27.0522 5.9751 26.9526 5.54004 26.7534 5.28223C26.5542 5.02441 26.2422 4.89551 25.8174 4.89551C25.4541 4.89551 25.1743 5.04346 24.978 5.33936C24.7817 5.63232 24.6836 6.05127 24.6836 6.59619C24.6836 7.13525 24.7788 7.54688 24.9692 7.83105C25.1597 8.1123 25.4453 8.25293 25.8262 8.25293ZM32.5586 9L32.3521 8.32324H32.3169C32.0825 8.61914 31.8467 8.82129 31.6094 8.92969C31.3721 9.03516 31.0674 9.08789 30.6953 9.08789C30.2178 9.08789 29.8442 8.95898 29.5747 8.70117C29.3081 8.44336 29.1748 8.07861 29.1748 7.60693C29.1748 7.10596 29.3608 6.72803 29.7329 6.47314C30.105 6.21826 30.6719 6.0791 31.4336 6.05566L32.2729 6.0293V5.77002C32.2729 5.45947 32.1997 5.22803 32.0532 5.07568C31.9097 4.92041 31.6855 4.84277 31.3809 4.84277C31.1318 4.84277 30.8931 4.87939 30.6646 4.95264C30.436 5.02588 30.2163 5.1123 30.0054 5.21191L29.6714 4.47363C29.9351 4.33594 30.2236 4.23193 30.5371 4.16162C30.8506 4.08838 31.1465 4.05176 31.4248 4.05176C32.043 4.05176 32.5088 4.18652 32.8223 4.45605C33.1387 4.72559 33.2969 5.14893 33.2969 5.72607V9H32.5586ZM31.0205 8.29688C31.3955 8.29688 31.6958 8.19287 31.9214 7.98486C32.1499 7.77393 32.2642 7.47949 32.2642 7.10156V6.67969L31.6401 6.70605C31.1538 6.72363 30.7993 6.80566 30.5767 6.95215C30.3569 7.0957 30.2471 7.31689 30.2471 7.61572C30.2471 7.83252 30.3115 8.00098 30.4404 8.12109C30.5693 8.23828 30.7627 8.29688 31.0205 8.29688Z" fill="white"/>
</svg>
