<svg width="107" height="15" viewBox="0 0 107 15" fill="none" xmlns="http://www.w3.org/2000/svg">
<path d="M6.70602 9.13154C7.33642 9.13154 7.84746 8.62493 7.84746 8C7.84746 7.37507 7.33642 6.86846 6.70602 6.86846C6.07562 6.86846 5.56458 7.37507 5.56458 8C5.56458 8.62493 6.07562 9.13154 6.70602 9.13154Z" stroke="#00AF82" stroke-linecap="round" stroke-linejoin="round"/>
<path d="M9.12585 5.60113C9.44423 5.9164 9.6968 6.29079 9.86913 6.70289C10.0415 7.11499 10.1302 7.55672 10.1302 8.00283C10.1302 8.44894 10.0415 8.89067 9.86913 9.30277C9.6968 9.71487 9.44423 10.0893 9.12585 10.4045M4.28613 10.3989C3.96775 10.0836 3.71518 9.70921 3.54285 9.29711C3.37052 8.88501 3.28182 8.44328 3.28182 7.99717C3.28182 7.55106 3.37052 7.10933 3.54285 6.69723C3.71518 6.28513 3.96775 5.91074 4.28613 5.59547M10.741 4C11.8109 5.06098 12.412 6.49978 12.412 8C12.412 9.50022 11.8109 10.939 10.741 12M2.67099 12C1.60106 10.939 1 9.50022 1 8C1 6.49978 1.60106 5.06098 2.67099 4" stroke="#00AF82" stroke-linecap="round" stroke-linejoin="round"/>
<path d="M23.9766 12H19.1309V3.43359H23.9766V4.61719H20.5312V6.94922H23.7598V8.12109H20.5312V10.8105H23.9766V12ZM31.1484 12H29.7656V8.00391C29.7656 7.50781 29.6719 7.13867 29.4844 6.89648C29.2969 6.65039 29.0039 6.52734 28.6055 6.52734C28.0742 6.52734 27.6836 6.70117 27.4336 7.04883C27.1875 7.39258 27.0645 7.9668 27.0645 8.77148V12H25.6875V5.51953H26.7656L26.959 6.36914H27.0293C27.209 6.06055 27.4688 5.82227 27.8086 5.6543C28.1523 5.48633 28.5293 5.40234 28.9395 5.40234C29.9355 5.40234 30.5957 5.74219 30.9199 6.42188H31.0137C31.2051 6.10156 31.4746 5.85156 31.8223 5.67188C32.1699 5.49219 32.5684 5.40234 33.0176 5.40234C33.791 5.40234 34.3535 5.59766 34.7051 5.98828C35.0605 6.37891 35.2383 6.97461 35.2383 7.77539V12H33.8613V8.00391C33.8613 7.50781 33.7656 7.13867 33.5742 6.89648C33.3867 6.65039 33.0938 6.52734 32.6953 6.52734C32.1602 6.52734 31.7676 6.69531 31.5176 7.03125C31.2715 7.36328 31.1484 7.875 31.1484 8.56641V12ZM44.332 12L44.0566 11.0977H44.0098C43.6973 11.4922 43.3828 11.7617 43.0664 11.9062C42.75 12.0469 42.3438 12.1172 41.8477 12.1172C41.2109 12.1172 40.7129 11.9453 40.3535 11.6016C39.998 11.2578 39.8203 10.7715 39.8203 10.1426C39.8203 9.47461 40.0684 8.9707 40.5645 8.63086C41.0605 8.29102 41.8164 8.10547 42.832 8.07422L43.9512 8.03906V7.69336C43.9512 7.2793 43.8535 6.9707 43.6582 6.76758C43.4668 6.56055 43.168 6.45703 42.7617 6.45703C42.4297 6.45703 42.1113 6.50586 41.8066 6.60352C41.502 6.70117 41.209 6.81641 40.9277 6.94922L40.4824 5.96484C40.834 5.78125 41.2188 5.64258 41.6367 5.54883C42.0547 5.45117 42.4492 5.40234 42.8203 5.40234C43.6445 5.40234 44.2656 5.58203 44.6836 5.94141C45.1055 6.30078 45.3164 6.86523 45.3164 7.63477V12H44.332ZM42.2812 11.0625C42.7812 11.0625 43.1816 10.9238 43.4824 10.6465C43.7871 10.3652 43.9395 9.97266 43.9395 9.46875V8.90625L43.1074 8.94141C42.459 8.96484 41.9863 9.07422 41.6895 9.26953C41.3965 9.46094 41.25 9.75586 41.25 10.1543C41.25 10.4434 41.3359 10.668 41.5078 10.8281C41.6797 10.9844 41.9375 11.0625 42.2812 11.0625ZM52.9395 12H51.5566V8.01562C51.5566 7.51562 51.4551 7.14258 51.252 6.89648C51.0527 6.65039 50.7344 6.52734 50.2969 6.52734C49.7148 6.52734 49.2891 6.69922 49.0195 7.04297C48.75 7.38672 48.6152 7.96289 48.6152 8.77148V12H47.2383V5.51953H48.3164L48.5098 6.36914H48.5801C48.7754 6.06055 49.0527 5.82227 49.4121 5.6543C49.7715 5.48633 50.1699 5.40234 50.6074 5.40234C52.1621 5.40234 52.9395 6.19336 52.9395 7.77539V12ZM57.041 12.1172C56.2324 12.1172 55.6016 11.8242 55.1484 11.2383C54.6953 10.6523 54.4688 9.83008 54.4688 8.77148C54.4688 7.70898 54.6973 6.88281 55.1543 6.29297C55.6152 5.69922 56.252 5.40234 57.0645 5.40234C57.916 5.40234 58.5645 5.7168 59.0098 6.3457H59.0801C59.0137 5.88086 58.9805 5.51367 58.9805 5.24414V2.88281H60.3633V12H59.2852L59.0449 11.1504H58.9805C58.5391 11.7949 57.8926 12.1172 57.041 12.1172ZM57.4102 11.0039C57.9766 11.0039 58.3887 10.8457 58.6465 10.5293C58.9043 10.209 59.0371 9.69141 59.0449 8.97656V8.7832C59.0449 7.9668 58.9121 7.38672 58.6465 7.04297C58.3809 6.69922 57.9648 6.52734 57.3984 6.52734C56.9141 6.52734 56.541 6.72461 56.2793 7.11914C56.0176 7.50977 55.8867 8.06836 55.8867 8.79492C55.8867 9.51367 56.0137 10.0625 56.2676 10.4414C56.5215 10.8164 56.9023 11.0039 57.4102 11.0039ZM66.3867 12L66.1113 11.0977H66.0645C65.752 11.4922 65.4375 11.7617 65.1211 11.9062C64.8047 12.0469 64.3984 12.1172 63.9023 12.1172C63.2656 12.1172 62.7676 11.9453 62.4082 11.6016C62.0527 11.2578 61.875 10.7715 61.875 10.1426C61.875 9.47461 62.123 8.9707 62.6191 8.63086C63.1152 8.29102 63.8711 8.10547 64.8867 8.07422L66.0059 8.03906V7.69336C66.0059 7.2793 65.9082 6.9707 65.7129 6.76758C65.5215 6.56055 65.2227 6.45703 64.8164 6.45703C64.4844 6.45703 64.166 6.50586 63.8613 6.60352C63.5566 6.70117 63.2637 6.81641 62.9824 6.94922L62.5371 5.96484C62.8887 5.78125 63.2734 5.64258 63.6914 5.54883C64.1094 5.45117 64.5039 5.40234 64.875 5.40234C65.6992 5.40234 66.3203 5.58203 66.7383 5.94141C67.1602 6.30078 67.3711 6.86523 67.3711 7.63477V12H66.3867ZM64.3359 11.0625C64.8359 11.0625 65.2363 10.9238 65.5371 10.6465C65.8418 10.3652 65.9941 9.97266 65.9941 9.46875V8.90625L65.1621 8.94141C64.5137 8.96484 64.041 9.07422 63.7441 9.26953C63.4512 9.46094 63.3047 9.75586 63.3047 10.1543C63.3047 10.4434 63.3906 10.668 63.5625 10.8281C63.7344 10.9844 63.9922 11.0625 64.3359 11.0625ZM74.7539 12H73.3711V8.00391C73.3711 7.50781 73.2773 7.13867 73.0898 6.89648C72.9023 6.65039 72.6094 6.52734 72.2109 6.52734C71.6797 6.52734 71.2891 6.70117 71.0391 7.04883C70.793 7.39258 70.6699 7.9668 70.6699 8.77148V12H69.293V5.51953H70.3711L70.5645 6.36914H70.6348C70.8145 6.06055 71.0742 5.82227 71.4141 5.6543C71.7578 5.48633 72.1348 5.40234 72.5449 5.40234C73.541 5.40234 74.2012 5.74219 74.5254 6.42188H74.6191C74.8105 6.10156 75.0801 5.85156 75.4277 5.67188C75.7754 5.49219 76.1738 5.40234 76.623 5.40234C77.3965 5.40234 77.959 5.59766 78.3105 5.98828C78.666 6.37891 78.8438 6.97461 78.8438 7.77539V12H77.4668V8.00391C77.4668 7.50781 77.3711 7.13867 77.1797 6.89648C76.9922 6.65039 76.6992 6.52734 76.3008 6.52734C75.7656 6.52734 75.373 6.69531 75.123 7.03125C74.877 7.36328 74.7539 7.875 74.7539 8.56641V12ZM83.5957 12.1172C82.5879 12.1172 81.7988 11.8242 81.2285 11.2383C80.6621 10.6484 80.3789 9.83789 80.3789 8.80664C80.3789 7.74805 80.6426 6.91602 81.1699 6.31055C81.6973 5.70508 82.4219 5.40234 83.3438 5.40234C84.1992 5.40234 84.875 5.66211 85.3711 6.18164C85.8672 6.70117 86.1152 7.41602 86.1152 8.32617V9.07031H81.7969C81.8164 9.69922 81.9863 10.1836 82.3066 10.5234C82.627 10.8594 83.0781 11.0273 83.6602 11.0273C84.043 11.0273 84.3984 10.9922 84.7266 10.9219C85.0586 10.8477 85.4141 10.7266 85.793 10.5586V11.6777C85.457 11.8379 85.1172 11.9512 84.7734 12.0176C84.4297 12.084 84.0371 12.1172 83.5957 12.1172ZM83.3438 6.44531C82.9062 6.44531 82.5547 6.58398 82.2891 6.86133C82.0273 7.13867 81.8711 7.54297 81.8203 8.07422H84.7617C84.7539 7.53906 84.625 7.13477 84.375 6.86133C84.125 6.58398 83.7812 6.44531 83.3438 6.44531ZM93.3809 12H91.998V8.01562C91.998 7.51562 91.8965 7.14258 91.6934 6.89648C91.4941 6.65039 91.1758 6.52734 90.7383 6.52734C90.1562 6.52734 89.7305 6.69922 89.4609 7.04297C89.1914 7.38672 89.0566 7.96289 89.0566 8.77148V12H87.6797V5.51953H88.7578L88.9512 6.36914H89.0215C89.2168 6.06055 89.4941 5.82227 89.8535 5.6543C90.2129 5.48633 90.6113 5.40234 91.0488 5.40234C92.6035 5.40234 93.3809 6.19336 93.3809 7.77539V12ZM97.7109 11.0039C98.0469 11.0039 98.3828 10.9512 98.7188 10.8457V11.8828C98.5664 11.9492 98.3691 12.0039 98.127 12.0469C97.8887 12.0938 97.6406 12.1172 97.3828 12.1172C96.0781 12.1172 95.4258 11.4297 95.4258 10.0547V6.5625H94.541V5.95312L95.4902 5.44922L95.959 4.07812H96.8086V5.51953H98.6543V6.5625H96.8086V10.0312C96.8086 10.3633 96.8906 10.6094 97.0547 10.7695C97.2227 10.9258 97.4414 11.0039 97.7109 11.0039ZM105.768 8.74805C105.768 9.80664 105.496 10.6328 104.953 11.2266C104.41 11.8203 103.654 12.1172 102.686 12.1172C102.08 12.1172 101.545 11.9805 101.08 11.707C100.615 11.4336 100.258 11.041 100.008 10.5293C99.7578 10.0176 99.6328 9.42383 99.6328 8.74805C99.6328 7.69727 99.9023 6.87695 100.441 6.28711C100.98 5.69727 101.74 5.40234 102.721 5.40234C103.658 5.40234 104.4 5.70508 104.947 6.31055C105.494 6.91211 105.768 7.72461 105.768 8.74805ZM101.051 8.74805C101.051 10.2441 101.604 10.9922 102.709 10.9922C103.803 10.9922 104.35 10.2441 104.35 8.74805C104.35 7.26758 103.799 6.52734 102.697 6.52734C102.119 6.52734 101.699 6.71875 101.438 7.10156C101.18 7.48438 101.051 8.0332 101.051 8.74805Z" fill="#00AF82"/>
</svg>
