<svg width="15" height="18" viewBox="0 0 15 18" fill="none" xmlns="http://www.w3.org/2000/svg">
<path fill-rule="evenodd" clip-rule="evenodd" d="M0.653759 0.646525C1.07388 0.233786 1.64596 0 2.24476 0H9.17142C9.30934 0 9.44144 0.0534308 9.53795 0.148244L14.733 5.25196C14.8269 5.34426 14.8795 5.46832 14.8795 5.59752V15.805C14.8795 16.3839 14.6455 16.9411 14.2258 17.3535C13.8056 17.7662 13.2336 18 12.6348 18H2.24476C1.64596 18 1.07388 17.7662 0.653759 17.3535C0.233988 16.9411 0 16.3839 0 15.805V2.19504C0 1.61612 0.233988 1.05892 0.653759 0.646525ZM2.24476 0.987603C1.92502 0.987603 1.61619 1.11229 1.38681 1.33764C1.15708 1.56333 1.02618 1.87157 1.02618 2.19504V15.805C1.02618 16.1284 1.15707 16.4367 1.38681 16.6624C1.61619 16.8877 1.92502 17.0124 2.24476 17.0124H12.6348C12.9545 17.0124 13.2633 16.8877 13.4927 16.6624C13.7224 16.4367 13.8533 16.1284 13.8533 15.805V5.79909L8.9558 0.987603H2.24476Z" fill="#666666"/>
<path fill-rule="evenodd" clip-rule="evenodd" d="M9.0285 0C9.31896 0 9.55443 0.217768 9.55443 0.486398V5.0272H14.3536C14.644 5.0272 14.8795 5.24497 14.8795 5.5136C14.8795 5.78223 14.644 6 14.3536 6H9.0285C8.73803 6 8.50256 5.78223 8.50256 5.5136V0.486398C8.50256 0.217768 8.73803 0 9.0285 0Z" fill="#666666"/>
<path fill-rule="evenodd" clip-rule="evenodd" d="M3.18835 10.5C3.18835 10.2239 3.43395 10 3.73691 10H11.1424C11.4453 10 11.6909 10.2239 11.6909 10.5C11.6909 10.7761 11.4453 11 11.1424 11H3.73691C3.43395 11 3.18835 10.7761 3.18835 10.5Z" fill="#666666"/>
<path fill-rule="evenodd" clip-rule="evenodd" d="M3.18835 13.5C3.18835 13.2239 3.43395 13 3.73691 13H11.1424C11.4453 13 11.6909 13.2239 11.6909 13.5C11.6909 13.7761 11.4453 14 11.1424 14H3.73691C3.43395 14 3.18835 13.7761 3.18835 13.5Z" fill="#666666"/>
<path fill-rule="evenodd" clip-rule="evenodd" d="M3.18835 7.5C3.18835 7.22386 3.45394 7 3.78156 7H5.78362C6.11124 7 6.37682 7.22386 6.37682 7.5C6.37682 7.77614 6.11124 8 5.78362 8H3.78156C3.45394 8 3.18835 7.77614 3.18835 7.5Z" fill="#666666"/>
<path fill-rule="evenodd" clip-rule="evenodd" d="M3.18835 4.5C3.18835 4.22386 3.45394 4 3.78156 4H5.78362C6.11124 4 6.37682 4.22386 6.37682 4.5C6.37682 4.77614 6.11124 5 5.78362 5H3.78156C3.45394 5 3.18835 4.77614 3.18835 4.5Z" fill="#666666"/>
</svg>
