<svg width="14" height="17" viewBox="0 0 14 17" fill="none" xmlns="http://www.w3.org/2000/svg">
<path d="M8.71402 1H2.6056C2.20058 1 1.81216 1.15645 1.52577 1.43495C1.23938 1.71344 1.07849 2.09115 1.07849 2.485V14.365C1.07849 14.7588 1.23938 15.1366 1.52577 15.4151C1.81216 15.6935 2.20058 15.85 2.6056 15.85H11.7682C12.1732 15.85 12.5617 15.6935 12.8481 15.4151C13.1345 15.1366 13.2953 14.7588 13.2953 14.365V5.455L8.71402 1Z" stroke="#666666" stroke-linecap="round" stroke-linejoin="round"/>
<path d="M8.71429 1V5.455H13.2956" stroke="#666666" stroke-linecap="round" stroke-linejoin="round"/>
<path d="M10.2413 9.16748H4.13287" stroke="#666666" stroke-linecap="round" stroke-linejoin="round"/>
<path d="M10.2413 12.1375H4.13287" stroke="#666666" stroke-linecap="round" stroke-linejoin="round"/>
<path d="M5.65998 6.19751H4.89643H4.13287" stroke="#666666" stroke-linecap="round" stroke-linejoin="round"/>
</svg>
