<svg width="22" height="24" viewBox="0 0 22 24" fill="none" xmlns="http://www.w3.org/2000/svg">
<path fill-rule="evenodd" clip-rule="evenodd" d="M10.3861 0.208715C10.7472 -0.0695717 11.2528 -0.0695717 11.6139 0.208715L21.6139 7.91514C21.8575 8.10285 22 8.39149 22 8.69725V20.8073C22 21.6541 21.6605 22.4662 21.0562 23.0649C20.452 23.6636 19.6324 24 18.7778 24H3.22222C2.36764 24 1.54805 23.6636 0.943767 23.0649C0.339483 22.4662 0 21.6541 0 20.8073V8.69725C0 8.39149 0.142473 8.10285 0.386059 7.91514L10.3861 0.208715ZM2 9.5V20.8073C2 21.1285 2.12877 21.4365 2.35798 21.6637C2.58719 21.8908 2.89807 22.0183 3.22222 22.0183H18.7778C19.1019 22.0183 19.4128 21.8908 19.642 21.6637C19.8712 21.4365 20 21.1285 20 20.8073V9.5L11 2.5L2 9.5Z" fill="white"/>
<path fill-rule="evenodd" clip-rule="evenodd" d="M7 11.9915C7 11.4439 7.46494 11 8.03846 11H14.9615C15.5351 11 16 11.4439 16 11.9915V23.0085C16 23.5561 15.5351 24 14.9615 24C14.388 24 14 23.5476 14 23V12.9831H9V23.0085C9 23.5561 8.61199 24 8.03846 24C7.46494 24 7 23.5561 7 23.0085V11.9915Z" fill="white"/>
</svg>
