<svg width="17" height="14" viewBox="0 0 17 14" fill="none" xmlns="http://www.w3.org/2000/svg">
<path d="M16 1.00672C15.3471 1.45846 14.6242 1.80396 13.8591 2.02993C13.4485 1.56682 12.9027 1.23858 12.2957 1.0896C11.6887 0.940625 11.0497 0.978099 10.4651 1.19696C9.88045 1.41581 9.37848 1.80549 9.02703 2.31329C8.67558 2.82109 8.49161 3.42251 8.5 4.0362V4.70496C7.3018 4.73544 6.11451 4.47478 5.04387 3.94622C3.97323 3.41765 3.05249 2.63758 2.36364 1.67548C2.36364 1.67548 -0.363636 7.69432 5.77273 10.3694C4.36854 11.3043 2.69579 11.773 1 11.7069C7.13636 15.0507 14.6364 11.7069 14.6364 4.01614C14.6357 3.82986 14.6175 3.64404 14.5818 3.46107C15.2777 2.78796 15.7687 1.93811 16 1.00672V1.00672Z" stroke="#666666" stroke-linecap="round" stroke-linejoin="round"/>
</svg>
