<svg width="44" height="68" viewBox="0 0 44 68" fill="none" xmlns="http://www.w3.org/2000/svg">
<circle cx="22" cy="22" r="21.5" fill="#FBFBFB" stroke="white"/>
<path d="M30 31V29C30 27.9391 29.5786 26.9217 28.8284 26.1716C28.0783 25.4214 27.0609 25 26 25H18C16.9391 25 15.9217 25.4214 15.1716 26.1716C14.4214 26.9217 14 27.9391 14 29V31" stroke="black" stroke-width="2" stroke-linecap="round" stroke-linejoin="round"/>
<path d="M22 21C24.2091 21 26 19.2091 26 17C26 14.7909 24.2091 13 22 13C19.7909 13 18 14.7909 18 17C18 19.2091 19.7909 21 22 21Z" stroke="black" stroke-width="2" stroke-linecap="round" stroke-linejoin="round"/>
<path d="M7.97266 65H2.31934V55.0059H7.97266V56.3867H3.95312V59.1074H7.71973V60.4746H3.95312V63.6123H7.97266V65ZM12.5186 65.1367C11.5752 65.1367 10.8392 64.7949 10.3105 64.1113C9.7819 63.4277 9.51758 62.4684 9.51758 61.2334C9.51758 59.9938 9.78418 59.0299 10.3174 58.3418C10.8551 57.6491 11.598 57.3027 12.5459 57.3027C13.5394 57.3027 14.2959 57.6696 14.8154 58.4033H14.8975C14.82 57.861 14.7812 57.4326 14.7812 57.1182V54.3633H16.3945V65H15.1367L14.8564 64.0088H14.7812C14.2663 64.7607 13.512 65.1367 12.5186 65.1367ZM12.9492 63.8379C13.61 63.8379 14.0908 63.6533 14.3916 63.2842C14.6924 62.9105 14.8473 62.3066 14.8564 61.4727V61.2471C14.8564 60.2946 14.7015 59.6178 14.3916 59.2168C14.0817 58.8158 13.5964 58.6152 12.9355 58.6152C12.3704 58.6152 11.9352 58.8454 11.6299 59.3057C11.3245 59.7614 11.1719 60.4131 11.1719 61.2607C11.1719 62.0993 11.32 62.7396 11.6162 63.1816C11.9124 63.6191 12.3568 63.8379 12.9492 63.8379ZM20.2979 65H18.6914V57.4395H20.2979V65ZM18.5957 55.4365C18.5957 55.1494 18.6732 54.9284 18.8281 54.7734C18.9876 54.6185 19.2132 54.541 19.5049 54.541C19.7874 54.541 20.0062 54.6185 20.1611 54.7734C20.3206 54.9284 20.4004 55.1494 20.4004 55.4365C20.4004 55.71 20.3206 55.9264 20.1611 56.0859C20.0062 56.2409 19.7874 56.3184 19.5049 56.3184C19.2132 56.3184 18.9876 56.2409 18.8281 56.0859C18.6732 55.9264 18.5957 55.71 18.5957 55.4365ZM25.418 63.8379C25.8099 63.8379 26.2018 63.7764 26.5938 63.6533V64.8633C26.416 64.9408 26.1859 65.0046 25.9033 65.0547C25.6253 65.1094 25.3359 65.1367 25.0352 65.1367C23.513 65.1367 22.752 64.3346 22.752 62.7305V58.6562H21.7197V57.9453L22.8271 57.3574L23.374 55.7578H24.3652V57.4395H26.5186V58.6562H24.3652V62.7031C24.3652 63.0905 24.4609 63.3776 24.6523 63.5645C24.8483 63.7467 25.1035 63.8379 25.418 63.8379ZM34.8174 61.2061C34.8174 62.4411 34.5007 63.4049 33.8672 64.0977C33.2337 64.7904 32.3519 65.1367 31.2217 65.1367C30.5153 65.1367 29.891 64.9772 29.3486 64.6582C28.8063 64.3392 28.3893 63.8812 28.0977 63.2842C27.806 62.6872 27.6602 61.9945 27.6602 61.2061C27.6602 59.9801 27.9746 59.0231 28.6035 58.335C29.2324 57.6468 30.1188 57.3027 31.2627 57.3027C32.3564 57.3027 33.2223 57.6559 33.8604 58.3623C34.4984 59.0641 34.8174 60.012 34.8174 61.2061ZM29.3145 61.2061C29.3145 62.9515 29.9593 63.8242 31.249 63.8242C32.5251 63.8242 33.1631 62.9515 33.1631 61.2061C33.1631 59.4788 32.5205 58.6152 31.2354 58.6152C30.5609 58.6152 30.071 58.8385 29.7656 59.2852C29.4648 59.7318 29.3145 60.3721 29.3145 61.2061ZM40.5049 57.3027C40.8285 57.3027 41.0951 57.3255 41.3047 57.3711L41.1475 58.8682C40.9196 58.8135 40.6826 58.7861 40.4365 58.7861C39.7939 58.7861 39.2721 58.9958 38.8711 59.415C38.4746 59.8343 38.2764 60.3789 38.2764 61.0488V65H36.6699V57.4395H37.9277L38.1396 58.7725H38.2217C38.4723 58.3213 38.7982 57.9635 39.1992 57.6992C39.6048 57.4349 40.04 57.3027 40.5049 57.3027Z" fill="white"/>
</svg>
