<svg width="76" height="76" viewBox="0 0 76 76" fill="none" xmlns="http://www.w3.org/2000/svg">
<path d="M38 76C58.9868 76 76 58.9868 76 38C76 17.0132 58.9868 0 38 0C17.0132 0 0 17.0132 0 38C0 58.9868 17.0132 76 38 76Z" fill="#00AF82"/>
<path d="M37.5 68C53.7924 68 67 54.7924 67 38.5C67 22.2076 53.7924 9 37.5 9C21.2076 9 8 22.2076 8 38.5C8 54.7924 21.2076 68 37.5 68Z" stroke="white" stroke-width="3" stroke-linecap="round" stroke-linejoin="round"/>
<path d="M50.0079 25.992L43.7539 44.754L24.9919 51.008L31.2459 32.246L50.0079 25.992Z" stroke="white" stroke-width="3" stroke-linecap="round" stroke-linejoin="round"/>
</svg>
