<svg version="1.1" viewBox="0 0 1440 802" fill="none"  preserveAspectRatio="none" xmlns="http://www.w3.org/2000/svg">
<rect width="1440" height="802" fill="white"/>
<rect width="1440" height="802" fill="#007E5A"/>
<path d="M108.438 153H51.1328V50.2031H108.438V60.8203H63.0859V93.9375H105.695V104.484H63.0859V142.312H108.438V153ZM179.242 131.977C179.242 139.148 176.57 144.68 171.227 148.57C165.883 152.461 158.383 154.406 148.727 154.406C138.508 154.406 130.539 152.789 124.82 149.555V138.727C128.523 140.602 132.484 142.078 136.703 143.156C140.969 144.234 145.07 144.773 149.008 144.773C155.102 144.773 159.789 143.812 163.07 141.891C166.352 139.922 167.992 136.945 167.992 132.961C167.992 129.961 166.68 127.406 164.055 125.297C161.477 123.141 156.414 120.609 148.867 117.703C141.695 115.031 136.586 112.711 133.539 110.742C130.539 108.727 128.289 106.453 126.789 103.922C125.336 101.391 124.609 98.3672 124.609 94.8516C124.609 88.5703 127.164 83.625 132.273 80.0156C137.383 76.3594 144.391 74.5312 153.297 74.5312C161.594 74.5312 169.703 76.2188 177.625 79.5938L173.477 89.0859C165.742 85.8984 158.734 84.3047 152.453 84.3047C146.922 84.3047 142.75 85.1719 139.938 86.9062C137.125 88.6406 135.719 91.0312 135.719 94.0781C135.719 96.1406 136.234 97.8984 137.266 99.3516C138.344 100.805 140.055 102.188 142.398 103.5C144.742 104.812 149.242 106.711 155.898 109.195C165.039 112.523 171.203 115.875 174.391 119.25C177.625 122.625 179.242 126.867 179.242 131.977ZM223.188 144.773C225.25 144.773 227.242 144.633 229.164 144.352C231.086 144.023 232.609 143.695 233.734 143.367V152.297C232.469 152.906 230.594 153.398 228.109 153.773C225.672 154.195 223.469 154.406 221.5 154.406C206.594 154.406 199.141 146.555 199.141 130.852V85.0078H188.102V79.3828L199.141 74.5312L204.062 58.0781H210.812V75.9375H233.172V85.0078H210.812V130.359C210.812 135 211.914 138.562 214.117 141.047C216.32 143.531 219.344 144.773 223.188 144.773ZM260.172 75.9375V125.93C260.172 132.211 261.602 136.898 264.461 139.992C267.32 143.086 271.797 144.633 277.891 144.633C285.953 144.633 291.836 142.43 295.539 138.023C299.289 133.617 301.164 126.422 301.164 116.438V75.9375H312.836V153H303.203L301.516 142.664H300.883C298.492 146.461 295.164 149.367 290.898 151.383C286.68 153.398 281.852 154.406 276.414 154.406C267.039 154.406 260.008 152.18 255.32 147.727C250.68 143.273 248.359 136.148 248.359 126.352V75.9375H260.172ZM272.406 63.9844C274.656 61.0781 277.07 57.5625 279.648 53.4375C282.273 49.3125 284.336 45.7266 285.836 42.6797H300.039V44.1562C297.977 47.2031 294.906 50.9531 290.828 55.4062C286.75 59.8594 283.211 63.3047 280.211 65.7422H272.406V63.9844ZM390.109 142.664H389.477C384.086 150.492 376.023 154.406 365.289 154.406C355.211 154.406 347.359 150.961 341.734 144.07C336.156 137.18 333.367 127.383 333.367 114.68C333.367 101.977 336.18 92.1094 341.805 85.0781C347.43 78.0469 355.258 74.5312 365.289 74.5312C375.742 74.5312 383.758 78.3281 389.336 85.9219H390.25L389.758 80.3672L389.477 74.9531V43.5938H401.148V153H391.656L390.109 142.664ZM366.766 144.633C374.734 144.633 380.5 142.477 384.062 138.164C387.672 133.805 389.477 126.797 389.477 117.141V114.68C389.477 103.758 387.648 95.9766 383.992 91.3359C380.383 86.6484 374.594 84.3047 366.625 84.3047C359.781 84.3047 354.531 86.9766 350.875 92.3203C347.266 97.6172 345.461 105.117 345.461 114.82C345.461 124.664 347.266 132.094 350.875 137.109C354.484 142.125 359.781 144.633 366.766 144.633ZM437.641 153H425.969V75.9375H437.641V153ZM424.984 55.0547C424.984 52.3828 425.641 50.4375 426.953 49.2188C428.266 47.9531 429.906 47.3203 431.875 47.3203C433.75 47.3203 435.367 47.9531 436.727 49.2188C438.086 50.4844 438.766 52.4297 438.766 55.0547C438.766 57.6797 438.086 59.6484 436.727 60.9609C435.367 62.2266 433.75 62.8594 431.875 62.8594C429.906 62.8594 428.266 62.2266 426.953 60.9609C425.641 59.6484 424.984 57.6797 424.984 55.0547ZM528.906 114.398C528.906 126.961 525.742 136.781 519.414 143.859C513.086 150.891 504.344 154.406 493.188 154.406C486.297 154.406 480.18 152.789 474.836 149.555C469.492 146.32 465.367 141.68 462.461 135.633C459.555 129.586 458.102 122.508 458.102 114.398C458.102 101.836 461.242 92.0625 467.523 85.0781C473.805 78.0469 482.523 74.5312 493.68 74.5312C504.461 74.5312 513.016 78.1172 519.344 85.2891C525.719 92.4609 528.906 102.164 528.906 114.398ZM470.195 114.398C470.195 124.242 472.164 131.742 476.102 136.898C480.039 142.055 485.828 144.633 493.469 144.633C501.109 144.633 506.898 142.078 510.836 136.969C514.82 131.812 516.812 124.289 516.812 114.398C516.812 104.602 514.82 97.1719 510.836 92.1094C506.898 87 501.062 84.4453 493.328 84.4453C485.688 84.4453 479.922 86.9531 476.031 91.9688C472.141 96.9844 470.195 104.461 470.195 114.398ZM114.344 292L104.078 263.453H64.7734L54.7188 292H37L75.4609 188.781H93.7422L132.203 292H114.344ZM99.6484 248.969L90.0156 220.984C89.3125 219.109 88.3281 216.156 87.0625 212.125C85.8438 208.094 85 205.141 84.5312 203.266C83.2656 209.031 81.4141 215.336 78.9766 222.18L69.6953 248.969H99.6484ZM175.375 293.406C163.609 293.406 154.656 289.984 148.516 283.141C142.422 276.25 139.375 266.383 139.375 253.539C139.375 240.461 142.562 230.406 148.938 223.375C155.359 216.344 164.617 212.828 176.711 212.828C184.914 212.828 192.297 214.352 198.859 217.398L193.867 230.688C186.883 227.969 181.117 226.609 176.57 226.609C163.117 226.609 156.391 235.539 156.391 253.398C156.391 262.117 158.055 268.68 161.383 273.086C164.758 277.445 169.68 279.625 176.148 279.625C183.508 279.625 190.469 277.797 197.031 274.141V288.555C194.078 290.289 190.914 291.531 187.539 292.281C184.211 293.031 180.156 293.406 175.375 293.406ZM284.289 252.977C284.289 265.68 281.031 275.594 274.516 282.719C268 289.844 258.93 293.406 247.305 293.406C240.039 293.406 233.617 291.766 228.039 288.484C222.461 285.203 218.172 280.492 215.172 274.352C212.172 268.211 210.672 261.086 210.672 252.977C210.672 240.367 213.906 230.523 220.375 223.445C226.844 216.367 235.961 212.828 247.727 212.828C258.977 212.828 267.883 216.461 274.445 223.727C281.008 230.945 284.289 240.695 284.289 252.977ZM227.688 252.977C227.688 270.93 234.32 279.906 247.586 279.906C260.711 279.906 267.273 270.93 267.273 252.977C267.273 235.211 260.664 226.328 247.445 226.328C240.508 226.328 235.469 228.625 232.328 233.219C229.234 237.812 227.688 244.398 227.688 252.977ZM368.875 292H352.281V244.047C352.281 238.094 351.156 233.664 348.906 230.758C346.656 227.805 343.141 226.328 338.359 226.328C331.984 226.328 327.297 228.414 324.297 232.586C321.344 236.711 319.867 243.602 319.867 253.258V292H303.344V214.234H316.281L318.602 224.43H319.445C321.602 220.727 324.719 217.867 328.797 215.852C332.922 213.836 337.445 212.828 342.367 212.828C354.32 212.828 362.242 216.906 366.133 225.062H367.258C369.555 221.219 372.789 218.219 376.961 216.062C381.133 213.906 385.914 212.828 391.305 212.828C400.586 212.828 407.336 215.172 411.555 219.859C415.82 224.547 417.953 231.695 417.953 241.305V292H401.43V244.047C401.43 238.094 400.281 233.664 397.984 230.758C395.734 227.805 392.219 226.328 387.438 226.328C381.016 226.328 376.305 228.344 373.305 232.375C370.352 236.359 368.875 242.5 368.875 250.797V292ZM480.461 293.406C470.617 293.406 462.977 289.867 457.539 282.789H456.555C457.211 289.352 457.539 293.336 457.539 294.742V326.594H441.016V214.234H454.375C454.75 215.688 455.523 219.156 456.695 224.641H457.539C462.695 216.766 470.43 212.828 480.742 212.828C490.445 212.828 497.992 216.344 503.383 223.375C508.82 230.406 511.539 240.273 511.539 252.977C511.539 265.68 508.773 275.594 503.242 282.719C497.758 289.844 490.164 293.406 480.461 293.406ZM476.453 226.328C469.891 226.328 465.086 228.25 462.039 232.094C459.039 235.938 457.539 242.078 457.539 250.516V252.977C457.539 262.445 459.039 269.312 462.039 273.578C465.039 277.797 469.938 279.906 476.734 279.906C482.453 279.906 486.859 277.562 489.953 272.875C493.047 268.188 494.594 261.508 494.594 252.836C494.594 244.117 493.047 237.531 489.953 233.078C486.906 228.578 482.406 226.328 476.453 226.328ZM579.391 292L576.086 281.172H575.523C571.773 285.906 568 289.141 564.203 290.875C560.406 292.562 555.531 293.406 549.578 293.406C541.938 293.406 535.961 291.344 531.648 287.219C527.383 283.094 525.25 277.258 525.25 269.711C525.25 261.695 528.227 255.648 534.18 251.57C540.133 247.492 549.203 245.266 561.391 244.891L574.82 244.469V240.32C574.82 235.352 573.648 231.648 571.305 229.211C569.008 226.727 565.422 225.484 560.547 225.484C556.562 225.484 552.742 226.07 549.086 227.242C545.43 228.414 541.914 229.797 538.539 231.391L533.195 219.578C537.414 217.375 542.031 215.711 547.047 214.586C552.062 213.414 556.797 212.828 561.25 212.828C571.141 212.828 578.594 214.984 583.609 219.297C588.672 223.609 591.203 230.383 591.203 239.617V292H579.391ZM554.781 280.75C560.781 280.75 565.586 279.086 569.195 275.758C572.852 272.383 574.68 267.672 574.68 261.625V254.875L564.695 255.297C556.914 255.578 551.242 256.891 547.68 259.234C544.164 261.531 542.406 265.07 542.406 269.852C542.406 273.32 543.438 276.016 545.5 277.938C547.562 279.812 550.656 280.75 554.781 280.75ZM682.68 292H666.086V244.188C666.086 238.188 664.867 233.711 662.43 230.758C660.039 227.805 656.219 226.328 650.969 226.328C643.984 226.328 638.875 228.391 635.641 232.516C632.406 236.641 630.789 243.555 630.789 253.258V292H614.266V214.234H627.203L629.523 224.43H630.367C632.711 220.727 636.039 217.867 640.352 215.852C644.664 213.836 649.445 212.828 654.695 212.828C673.352 212.828 682.68 222.32 682.68 241.305V292ZM774.086 292H757.492V244.188C757.492 238.188 756.273 233.711 753.836 230.758C751.445 227.805 747.625 226.328 742.375 226.328C735.438 226.328 730.328 228.414 727.047 232.586C723.812 236.711 722.195 243.648 722.195 253.398V292H705.672V182.594H722.195V210.367C722.195 214.82 721.914 219.578 721.352 224.641H722.406C724.656 220.891 727.773 217.984 731.758 215.922C735.789 213.859 740.477 212.828 745.82 212.828C764.664 212.828 774.086 222.32 774.086 241.305V292ZM831.039 293.406C818.945 293.406 809.477 289.891 802.633 282.859C795.836 275.781 792.438 266.055 792.438 253.68C792.438 240.977 795.602 230.992 801.93 223.727C808.258 216.461 816.953 212.828 828.016 212.828C838.281 212.828 846.391 215.945 852.344 222.18C858.297 228.414 861.273 236.992 861.273 247.914V256.844H809.453C809.688 264.391 811.727 270.203 815.57 274.281C819.414 278.312 824.828 280.328 831.812 280.328C836.406 280.328 840.672 279.906 844.609 279.062C848.594 278.172 852.859 276.719 857.406 274.703V288.133C853.375 290.055 849.297 291.414 845.172 292.211C841.047 293.008 836.336 293.406 831.039 293.406ZM828.016 225.344C822.766 225.344 818.547 227.008 815.359 230.336C812.219 233.664 810.344 238.516 809.734 244.891H845.031C844.938 238.469 843.391 233.617 840.391 230.336C837.391 227.008 833.266 225.344 828.016 225.344Z" fill="#016D4E" fill-opacity="0.6"/>
<path fill-rule="evenodd" clip-rule="evenodd" d="M1366.96 750.317H1369.85L1370.63 752.553H1371.85L1369.02 744.954H1368.22L1365.13 752.553H1366.14L1366.96 750.317ZM1368.45 746.082H1368.47C1368.85 747.45 1369.22 748.503 1369.6 749.557H1367.25C1367.66 748.503 1368.06 747.45 1368.45 746.082ZM1367.71 755.072L1364.67 762.557H1365.67L1366.47 760.354H1369.32L1370.09 762.557H1371.29L1368.5 755.072H1367.71ZM1366.76 759.606C1367.17 758.567 1367.56 757.53 1367.95 756.183H1367.97C1368.34 757.53 1368.7 758.568 1369.08 759.606H1366.76ZM1364.87 755.072H1359.04V755.821H1361.44V762.557H1362.47V755.821H1364.87V755.072ZM1347.73 755.072H1345.85V762.557H1346.89V755.821H1347.6C1348.71 755.821 1349.17 756.419 1349.17 757.242C1349.17 758.355 1348.54 758.89 1347.54 758.942L1347.2 758.954V759.637H1347.53C1349.2 759.637 1350.28 758.494 1350.28 757.231C1350.28 755.778 1349.31 755.072 1347.73 755.072ZM1339.24 750.317H1342.13L1342.91 752.553H1344.13L1341.3 744.954H1340.5L1337.41 752.553H1338.43L1339.24 750.317ZM1340.74 746.082H1340.75C1341.13 747.45 1341.5 748.503 1341.88 749.557H1339.53C1339.94 748.503 1340.34 747.45 1340.74 746.082ZM1334.85 752.683C1335.83 752.683 1336.72 752.335 1337.23 751.988L1336.82 751.359C1336.38 751.663 1335.73 751.924 1334.9 751.924C1333.25 751.924 1331.92 750.632 1331.92 748.71C1331.92 746.93 1333.03 745.584 1334.9 745.584C1335.72 745.584 1336.53 745.952 1336.89 746.246L1337.32 745.596C1336.82 745.204 1336.06 744.823 1334.98 744.823C1332.26 744.823 1330.76 746.822 1330.76 748.732C1330.76 750.826 1332.14 752.683 1334.85 752.683ZM1333.67 755.072H1331.28V762.557H1333.5C1336.15 762.557 1337.73 761.071 1337.73 758.591C1337.73 756.793 1336.68 755.072 1333.67 755.072ZM1333.47 761.808H1332.32V755.821H1333.69C1335.66 755.821 1336.59 756.9 1336.59 758.568C1336.58 760.759 1335.57 761.808 1333.47 761.808ZM1340.86 758.985H1343.45V758.238H1340.86V755.821H1343.5V755.072H1339.82V762.557H1343.96V761.809H1340.86V758.985ZM1356.8 759.787C1356.8 760.857 1356.33 761.969 1354.93 761.969C1353.6 761.969 1353.02 761.156 1353.02 759.606V755.072H1351.99V759.648C1351.99 761.573 1352.83 762.685 1354.93 762.685C1356.74 762.685 1357.77 761.487 1357.77 759.808V755.072H1356.8V759.787ZM1354.69 750.317H1357.58L1358.36 752.553H1359.58L1356.75 744.954H1355.95L1352.86 752.553H1353.88L1354.69 750.317ZM1356.19 746.082H1356.21C1356.59 747.45 1356.96 748.503 1357.33 749.557H1354.98C1355.4 748.503 1355.8 747.45 1356.19 746.082ZM1385.51 752.683C1387.85 752.683 1389.3 750.892 1389.3 748.623C1389.3 746.496 1387.7 744.823 1385.51 744.823C1383.32 744.823 1381.72 746.496 1381.72 748.623C1381.72 750.892 1383.17 752.683 1385.51 752.683ZM1385.51 745.583C1387.38 745.583 1388.14 747.2 1388.14 748.623C1388.14 750.111 1387.47 751.924 1385.51 751.924C1383.55 751.924 1382.88 750.111 1382.88 748.623C1382.88 747.2 1383.63 745.583 1385.51 745.583ZM1381.37 748.525C1381.37 746.701 1380.31 744.954 1377.25 744.954H1374.82V752.553H1377.08C1379.77 752.552 1381.37 751.043 1381.37 748.525ZM1375.87 751.792V745.713H1377.27C1379.27 745.713 1380.21 746.809 1380.21 748.502C1380.21 750.729 1379.18 751.792 1377.05 751.792H1375.87V751.792ZM1361.1 749.405H1362.22L1363.98 752.683L1365.04 752.358L1363.15 749.123C1363.88 748.656 1364.42 748.025 1364.42 746.908C1364.42 745.595 1363.46 744.955 1362.22 744.955H1360.05V752.554H1361.11V749.405H1361.1ZM1361.1 745.713H1362C1362.71 745.713 1363.29 746.071 1363.29 747.004C1363.29 747.645 1363.05 748.644 1361.7 748.644H1361.1V745.713ZM1340.75 743.335L1341.83 744.388H1342.47L1341.12 742.739H1340.41L1339.06 744.388H1339.68L1340.75 743.335ZM1379.19 758.59C1379.19 756.793 1378.14 755.072 1375.13 755.072H1372.74V762.557H1374.96C1377.61 762.557 1379.19 761.07 1379.19 758.59ZM1373.77 761.808V755.821H1375.15C1377.12 755.821 1378.04 756.9 1378.04 758.568C1378.04 760.76 1377.03 761.808 1374.93 761.808H1373.77ZM1392.32 758.333C1391.35 757.638 1390.9 757.242 1390.9 756.707C1390.9 756.131 1391.31 755.692 1392.06 755.692C1392.51 755.692 1392.99 755.959 1393.35 756.226L1393.84 755.692C1393.43 755.221 1392.78 754.944 1391.99 754.944C1390.83 754.944 1389.86 755.702 1389.86 756.708C1389.86 757.766 1390.55 758.227 1391.17 758.708C1391.78 759.156 1392.9 759.765 1392.9 760.707C1392.9 761.541 1392.34 761.936 1391.6 761.936C1390.9 761.936 1390.42 761.594 1389.98 761.284L1389.52 761.905C1390.05 762.429 1390.91 762.685 1391.62 762.685C1392.82 762.685 1393.94 761.916 1393.94 760.728C1393.94 759.765 1393.34 759.081 1392.32 758.333ZM1384.54 754.944C1382.39 754.944 1380.81 756.59 1380.81 758.686C1380.81 760.922 1382.24 762.685 1384.54 762.685C1386.85 762.685 1388.28 760.922 1388.28 758.686C1388.28 756.59 1386.7 754.944 1384.54 754.944ZM1384.54 761.936C1382.61 761.936 1381.95 760.15 1381.95 758.686C1381.95 757.286 1382.7 755.692 1384.54 755.692C1386.39 755.692 1387.14 757.287 1387.14 758.686C1387.14 760.15 1386.48 761.936 1384.54 761.936ZM1345.45 746.364H1345.47C1345.76 747.363 1347.33 750.61 1348.28 752.553H1348.7C1349.72 750.61 1351.44 747.255 1351.74 746.364H1351.77V752.553H1352.82V744.954H1351.83C1350.77 746.972 1349.7 749.003 1348.62 751.141C1347.66 749.003 1346.68 746.972 1345.71 744.954H1344.58V752.552H1345.45V746.364H1345.45ZM1391.55 751.924C1390.84 751.924 1390.35 751.576 1389.91 751.26L1389.44 751.89C1389.98 752.422 1390.85 752.682 1391.58 752.682C1392.79 752.682 1393.93 751.9 1393.93 750.696C1393.93 749.719 1393.32 749.024 1392.28 748.264C1391.31 747.558 1390.84 747.157 1390.84 746.615C1390.84 746.028 1391.26 745.583 1392.02 745.583C1392.48 745.583 1392.96 745.854 1393.33 746.126L1393.83 745.583C1393.41 745.106 1392.75 744.823 1391.96 744.823C1390.77 744.823 1389.79 745.595 1389.79 746.615C1389.79 747.689 1390.49 748.156 1391.12 748.645C1391.74 749.101 1392.88 749.719 1392.88 750.675C1392.88 751.52 1392.3 751.924 1391.55 751.924ZM1296 768.64H1400.45V739H1296V768.64ZM1297.05 750.445H1298.64V751.005L1297.05 751.005V750.445ZM1297.05 751.553H1298.64V760.532H1297.05V751.553ZM1324.44 767.583H1297.05V762.415H1324.44V767.583ZM1324.44 755.441H1304.89C1306.73 757.28 1310.56 759.865 1313.95 760.533H1301.73V742.145H1298.64V749.89H1297.05V740.06H1324.44V755.441ZM1399.4 767.576H1325.46V740.057H1399.4V767.576Z" fill="white"/>
</svg>
