<svg width="330" height="71" viewBox="0 0 330 71" fill="none" xmlns="http://www.w3.org/2000/svg">
<path d="M0 8.97832C0 4.01973 4.01973 0 8.97832 0H51.3047C56.2633 0 60.283 4.01973 60.283 8.97832V51.3047C60.283 56.2633 56.2633 60.283 51.3047 60.283H8.97832C4.01973 60.283 0 56.2633 0 51.3047V8.97832Z" fill="#00AF82"/>
<path d="M4.0188 11.8001C4.0188 7.50263 7.50257 4.01886 11.8 4.01886H48.4829C52.7803 4.01886 56.2641 7.50263 56.2641 11.8001V48.4829C56.2641 52.7804 52.7803 56.2641 48.4829 56.2641H11.8C7.50257 56.2641 4.0188 52.7804 4.0188 48.4829V11.8001Z" fill="#F2F2F2"/>
<path d="M29.3402 41.2402L27.0462 35.392H18.263L16.0162 41.2402H12.0566L20.6513 20.0943H24.7365L33.3312 41.2402H29.3402ZM26.0563 32.4246L23.9037 26.6916C23.7466 26.3075 23.5267 25.7025 23.2438 24.8766C22.9715 24.0508 22.7829 23.4458 22.6782 23.0617C22.3954 24.2428 21.9816 25.5344 21.4369 26.9365L19.3629 32.4246H26.0563Z" fill="#181818"/>
<path d="M42.9785 41.5283C40.3493 41.5283 38.3486 40.8273 36.9764 39.4252C35.6147 38.0136 34.9338 35.9921 34.9338 33.3609C34.9338 30.6817 35.6461 28.6218 37.0707 27.1814C38.5058 25.7409 40.5745 25.0207 43.2771 25.0207C45.1102 25.0207 46.76 25.3328 48.2265 25.957L47.1109 28.6794C45.5501 28.1225 44.2617 27.844 43.2456 27.844C40.2393 27.844 38.7362 29.6734 38.7362 33.3321C38.7362 35.1183 39.1081 36.4627 39.8518 37.3654C40.606 38.2585 41.7058 38.705 43.1514 38.705C44.7959 38.705 46.3514 38.3305 47.8179 37.5814V40.5344C47.158 40.8897 46.451 41.1442 45.6968 41.2978C44.953 41.4515 44.047 41.5283 42.9785 41.5283Z" fill="#181818"/>
<path d="M87.5535 19.8751H79.0377V3.85194H87.5535V5.50687H80.814V10.6689H87.146V12.3129H80.814V18.2093H87.5535V19.8751Z" fill="white"/>
<path d="M98.0755 16.5982C98.0755 17.7161 97.6785 18.5782 96.8844 19.1847C96.0903 19.7911 94.9757 20.0943 93.5407 20.0943C92.0222 20.0943 90.838 19.8423 89.9881 19.3381V17.6503C90.5384 17.9426 91.1271 18.1727 91.754 18.3408C92.3879 18.5088 92.9974 18.5928 93.5825 18.5928C94.4881 18.5928 95.1847 18.4431 95.6723 18.1435C96.1599 17.8366 96.4037 17.3727 96.4037 16.7516C96.4037 16.284 96.2087 15.8858 95.8186 15.557C95.4355 15.2209 94.6831 14.8263 93.5616 14.3733C92.4959 13.9569 91.7366 13.5952 91.2838 13.2883C90.838 12.9741 90.5036 12.6198 90.2807 12.2252C90.0647 11.8307 89.9568 11.3594 89.9568 10.8114C89.9568 9.83233 90.3364 9.06149 91.0957 8.49889C91.855 7.92898 92.8964 7.64403 94.2199 7.64403C95.4529 7.64403 96.658 7.90706 97.8352 8.43313L97.2187 9.9127C96.0694 9.41586 95.028 9.16744 94.0945 9.16744C93.2725 9.16744 92.6526 9.30261 92.2346 9.57295C91.8167 9.84329 91.6077 10.2159 91.6077 10.6908C91.6077 11.0123 91.6843 11.2863 91.8376 11.5128C91.9978 11.7393 92.252 11.9549 92.6003 12.1595C92.9486 12.364 93.6174 12.66 94.6065 13.0472C95.9649 13.566 96.8809 14.0884 97.3546 14.6144C97.8352 15.1405 98.0755 15.8018 98.0755 16.5982Z" fill="white"/>
<path d="M104.606 18.5928C104.913 18.5928 105.209 18.5709 105.494 18.5271C105.78 18.4759 106.006 18.4248 106.173 18.3737V19.7655C105.985 19.8605 105.707 19.9373 105.337 19.9957C104.975 20.0615 104.648 20.0943 104.355 20.0943C102.14 20.0943 101.033 18.8705 101.033 16.4228V9.27703H99.3921V8.40025L101.033 7.64403L101.764 5.07944H102.767V7.86322H106.09V9.27703H102.767V16.3461C102.767 17.0694 102.931 17.6247 103.258 18.012C103.586 18.3992 104.035 18.5928 104.606 18.5928Z" fill="white"/>
<path d="M110.102 7.86322V15.6556C110.102 16.6347 110.315 17.3654 110.74 17.8476C111.164 18.3298 111.83 18.5709 112.735 18.5709C113.933 18.5709 114.808 18.2275 115.358 17.5407C115.915 16.8539 116.194 15.7323 116.194 14.1761V7.86322H117.928V19.8751H116.497L116.246 18.2641H116.152C115.797 18.8559 115.302 19.3089 114.668 19.6231C114.041 19.9373 113.324 20.0943 112.516 20.0943C111.123 20.0943 110.078 19.7473 109.381 19.0532C108.692 18.359 108.347 17.2484 108.347 15.7214V7.86322H110.102ZM111.92 6.00006C112.255 5.54705 112.613 4.99907 112.997 4.35609C113.387 3.71312 113.693 3.15417 113.916 2.67924H116.027V2.9094C115.72 3.38432 115.264 3.96885 114.658 4.66297C114.052 5.35709 113.526 5.89411 113.08 6.27405H111.92V6.00006Z" fill="white"/>
<path d="M129.412 18.2641H129.318C128.517 19.4842 127.318 20.0943 125.723 20.0943C124.226 20.0943 123.059 19.5573 122.223 18.4833C121.394 17.4092 120.979 15.8821 120.979 13.9021C120.979 11.922 121.397 10.384 122.233 9.28799C123.069 8.19202 124.233 7.64403 125.723 7.64403C127.277 7.64403 128.468 8.23585 129.297 9.41951H129.433L129.359 8.55369L129.318 7.70979V2.82172H131.052V19.8751H129.642L129.412 18.2641ZM125.943 18.5709C127.127 18.5709 127.984 18.2348 128.513 17.5626C129.049 16.8831 129.318 15.7908 129.318 14.2857V13.9021C129.318 12.1996 129.046 10.9868 128.503 10.2634C127.966 9.53276 127.106 9.16744 125.922 9.16744C124.905 9.16744 124.125 9.58391 123.581 10.4169C123.045 11.2425 122.777 12.4115 122.777 13.924C122.777 15.4584 123.045 16.6164 123.581 17.3982C124.118 18.18 124.905 18.5709 125.943 18.5709Z" fill="white"/>
<path d="M136.475 19.8751H134.741V7.86322H136.475V19.8751ZM134.594 4.60817C134.594 4.19169 134.692 3.88847 134.887 3.6985C135.082 3.50123 135.326 3.40259 135.618 3.40259C135.897 3.40259 136.137 3.50123 136.339 3.6985C136.541 3.89578 136.642 4.199 136.642 4.60817C136.642 5.01733 136.541 5.32421 136.339 5.52879C136.137 5.72606 135.897 5.8247 135.618 5.8247C135.326 5.8247 135.082 5.72606 134.887 5.52879C134.692 5.32421 134.594 5.01733 134.594 4.60817Z" fill="white"/>
<path d="M150.038 13.8582C150.038 15.8164 149.568 17.3471 148.627 18.4504C147.687 19.5464 146.388 20.0943 144.73 20.0943C143.706 20.0943 142.797 19.8423 142.003 19.3381C141.208 18.834 140.595 18.1106 140.164 17.1681C139.732 16.2255 139.516 15.1223 139.516 13.8582C139.516 11.9001 139.982 10.3767 140.916 9.28799C141.849 8.19202 143.145 7.64403 144.803 7.64403C146.405 7.64403 147.676 8.20298 148.617 9.32087C149.564 10.4388 150.038 11.9512 150.038 13.8582ZM141.313 13.8582C141.313 15.3926 141.605 16.5616 142.191 17.3654C142.776 18.1691 143.636 18.5709 144.771 18.5709C145.907 18.5709 146.767 18.1727 147.352 17.3763C147.944 16.5726 148.241 15.3999 148.241 13.8582C148.241 12.3312 147.944 11.1731 147.352 10.384C146.767 9.58756 145.9 9.18936 144.751 9.18936C143.615 9.18936 142.758 9.58026 142.18 10.3621C141.602 11.1439 141.313 12.3092 141.313 13.8582Z" fill="white"/>
<path d="M100.164 60.7017L97.9568 53.4175H86.8593L84.6523 60.7017H77.6981L88.4417 29.9741H96.3328L107.118 60.7017H100.164ZM96.4161 47.9752C94.3756 41.3748 93.2235 37.642 92.9598 36.7768C92.71 35.9117 92.5295 35.2279 92.4185 34.7255C91.9604 36.5117 90.6487 40.9283 88.4833 47.9752H96.4161Z" fill="white"/>
<path d="M119.923 61.1203C112.677 61.1203 109.054 57.1224 109.054 49.1265C109.054 45.1495 110.04 42.1144 112.011 40.0212C113.982 37.9141 116.807 36.8606 120.485 36.8606C123.178 36.8606 125.593 37.3908 127.731 38.4514L125.857 43.3912C124.857 42.9865 123.927 42.6586 123.067 42.4074C122.206 42.1423 121.346 42.0097 120.485 42.0097C117.181 42.0097 115.53 44.368 115.53 49.0846C115.53 53.6617 117.181 55.9502 120.485 55.9502C121.706 55.9502 122.838 55.7897 123.879 55.4688C124.92 55.1338 125.961 54.6175 127.002 53.9198V59.383C125.975 60.0388 124.934 60.4923 123.879 60.7435C122.838 60.9947 121.519 61.1203 119.923 61.1203Z" fill="white"/>
<path d="M137.475 48.959C137.475 51.2755 137.85 53.0267 138.599 54.2129C139.363 55.399 140.598 55.992 142.305 55.992C143.999 55.992 145.213 55.406 145.949 54.2338C146.698 53.0477 147.073 51.2894 147.073 48.959C147.073 46.6426 146.698 44.9053 145.949 43.7471C145.199 42.5888 143.971 42.0097 142.264 42.0097C140.57 42.0097 139.349 42.5888 138.599 43.7471C137.85 44.8913 137.475 46.6286 137.475 48.959ZM153.569 48.959C153.569 52.7686 152.57 55.7478 150.571 57.8968C148.572 60.0458 145.789 61.1203 142.222 61.1203C139.987 61.1203 138.016 60.6319 136.309 59.6551C134.602 58.6643 133.29 57.2479 132.374 55.406C131.458 53.564 131 51.415 131 48.959C131 45.1355 131.992 42.1632 133.977 40.0422C135.962 37.9211 138.752 36.8606 142.347 36.8606C144.582 36.8606 146.553 37.349 148.26 38.3258C149.967 39.3026 151.279 40.705 152.195 42.533C153.111 44.361 153.569 46.503 153.569 48.959Z" fill="white"/>
<path d="M179.658 60.7017H173.307V47.0333C173.307 45.3448 173.023 44.082 172.454 43.2447C171.899 42.3935 171.017 41.9679 169.81 41.9679C168.186 41.9679 167.006 42.5679 166.27 43.768C165.534 44.9681 165.167 46.9426 165.167 49.6916V60.7017H158.816V37.3001H163.667L164.521 40.2933H164.875C165.5 39.2189 166.402 38.3816 167.582 37.7815C168.762 37.1676 170.115 36.8606 171.642 36.8606C175.126 36.8606 177.486 38.0048 178.721 40.2933H179.283C179.908 39.2049 180.824 38.3607 182.031 37.7606C183.253 37.1606 184.627 36.8606 186.154 36.8606C188.791 36.8606 190.783 37.5443 192.13 38.9119C193.49 40.2654 194.17 42.4423 194.17 45.4425V60.7017H187.799V47.0333C187.799 45.3448 187.514 44.082 186.945 43.2447C186.39 42.3935 185.509 41.9679 184.301 41.9679C182.746 41.9679 181.58 42.526 180.803 43.6424C180.04 44.7588 179.658 46.531 179.658 48.959V60.7017Z" fill="white"/>
<path d="M213.492 61.1203C210.757 61.1203 208.613 60.1225 207.058 58.1271H206.725C206.947 60.0807 207.058 61.211 207.058 61.518V71H200.708V37.3001H205.871L206.767 40.3352H207.058C208.543 38.0188 210.743 36.8606 213.658 36.8606C216.407 36.8606 218.558 37.9281 220.113 40.0631C221.667 42.1981 222.445 45.1634 222.445 48.959C222.445 51.4569 222.077 53.6268 221.341 55.4688C220.619 57.3107 219.585 58.7132 218.239 59.676C216.892 60.6389 215.31 61.1203 213.492 61.1203ZM211.618 41.9679C210.049 41.9679 208.904 42.4563 208.182 43.4331C207.461 44.3959 207.086 45.9937 207.058 48.2264V48.9172C207.058 51.429 207.426 53.2291 208.162 54.3175C208.911 55.406 210.091 55.9502 211.701 55.9502C214.547 55.9502 215.969 53.5919 215.969 48.8753C215.969 46.5728 215.615 44.8495 214.908 43.7052C214.214 42.547 213.117 41.9679 211.618 41.9679Z" fill="white"/>
<path d="M242.474 60.7017L241.246 57.5201H241.079C240.011 58.8736 238.907 59.8155 237.769 60.3458C236.645 60.8621 235.173 61.1203 233.355 61.1203C231.12 61.1203 229.357 60.4784 228.066 59.1946C226.789 57.9108 226.151 56.0827 226.151 53.7105C226.151 51.2266 227.011 49.3986 228.733 48.2264C230.468 47.0403 233.077 46.3844 236.561 46.2588L240.6 46.1333V45.1076C240.6 42.7354 239.393 41.5492 236.978 41.5492C235.118 41.5492 232.931 42.1144 230.419 43.2447L228.316 38.9328C230.995 37.5234 233.966 36.8187 237.228 36.8187C240.351 36.8187 242.745 37.5025 244.411 38.87C246.076 40.2375 246.909 42.3167 246.909 45.1076V60.7017H242.474ZM240.6 49.8591L238.144 49.9428C236.298 49.9986 234.923 50.3335 234.021 50.9475C233.119 51.5615 232.668 52.4965 232.668 53.7524C232.668 55.5525 233.695 56.4525 235.749 56.4525C237.221 56.4525 238.393 56.0269 239.268 55.1757C240.156 54.3245 240.6 53.1942 240.6 51.7848V49.8591Z" fill="white"/>
<path d="M274.955 60.7017H268.605V47.0333C268.605 45.3448 268.306 44.082 267.709 43.2447C267.112 42.3935 266.162 41.9679 264.857 41.9679C263.08 41.9679 261.796 42.5679 261.005 43.768C260.214 44.9541 259.818 46.9287 259.818 49.6916V60.7017H253.468V37.3001H258.319L259.173 40.2933H259.527C260.235 39.163 261.206 38.3118 262.442 37.7397C263.691 37.1536 265.107 36.8606 266.689 36.8606C269.396 36.8606 271.45 37.6001 272.852 39.0793C274.254 40.5445 274.955 42.6656 274.955 45.4425V60.7017Z" fill="white"/>
<path d="M302.98 60.7017H296.629V47.0333C296.629 43.6564 295.38 41.9679 292.882 41.9679C291.105 41.9679 289.821 42.5749 289.03 43.7889C288.239 45.003 287.843 46.9705 287.843 49.6916V60.7017H281.493V28.1321H287.843V34.7674C287.843 35.2837 287.794 36.4977 287.697 38.4095L287.552 40.2933H287.885C289.3 38.0048 291.549 36.8606 294.631 36.8606C297.365 36.8606 299.44 37.6001 300.856 39.0793C302.272 40.5585 302.98 42.6795 302.98 45.4425V60.7017Z" fill="white"/>
<path d="M319.158 41.4027C317.811 41.4027 316.756 41.8353 315.993 42.7005C315.229 43.5517 314.792 44.7657 314.681 46.3426H323.592C323.565 44.7657 323.155 43.5517 322.364 42.7005C321.573 41.8353 320.504 41.4027 319.158 41.4027ZM320.053 61.1203C316.305 61.1203 313.376 60.0807 311.266 58.0015C309.157 55.9223 308.102 52.9779 308.102 49.1683C308.102 45.2472 309.073 42.219 311.017 40.084C312.974 37.935 315.674 36.8606 319.116 36.8606C322.406 36.8606 324.967 37.8025 326.799 39.6863C328.631 41.5702 329.547 44.1727 329.547 47.4938V50.5917H314.535C314.605 52.4058 315.139 53.8221 316.139 54.8408C317.138 55.8595 318.54 56.3688 320.344 56.3688C321.746 56.3688 323.072 56.2223 324.321 55.9292C325.57 55.6362 326.875 55.1687 328.235 54.5268V59.4667C327.125 60.0249 325.938 60.4365 324.675 60.7017C323.412 60.9807 321.871 61.1203 320.053 61.1203Z" fill="white"/>
</svg>
