<svg width="48" height="47" viewBox="0 0 48 47" fill="none" xmlns="http://www.w3.org/2000/svg">
<rect width="48" height="47" rx="7" fill="#007E5A"/>
<path d="M22.8906 33L21.1797 28.2422H14.6289L12.9531 33H10L16.4102 15.7969H19.457L25.8672 33H22.8906ZM20.4414 25.8281L18.8359 21.1641C18.7188 20.8516 18.5547 20.3594 18.3438 19.6875C18.1406 19.0156 18 18.5234 17.9219 18.2109C17.7109 19.1719 17.4023 20.2227 16.9961 21.3633L15.4492 25.8281H20.4414ZM33.0625 33.2344C31.1016 33.2344 29.6094 32.6641 28.5859 31.5234C27.5703 30.375 27.0625 28.7305 27.0625 26.5898C27.0625 24.4102 27.5938 22.7344 28.6562 21.5625C29.7266 20.3906 31.2695 19.8047 33.2852 19.8047C34.6523 19.8047 35.8828 20.0586 36.9766 20.5664L36.1445 22.7812C34.9805 22.3281 34.0195 22.1016 33.2617 22.1016C31.0195 22.1016 29.8984 23.5898 29.8984 26.5664C29.8984 28.0195 30.1758 29.1133 30.7305 29.8477C31.293 30.5742 32.1133 30.9375 33.1914 30.9375C34.418 30.9375 35.5781 30.6328 36.6719 30.0234V32.4258C36.1797 32.7148 35.6523 32.9219 35.0898 33.0469C34.5352 33.1719 33.8594 33.2344 33.0625 33.2344Z" fill="white"/>
</svg>
