<svg width="14" height="15" viewBox="0 0 14 15" fill="none" xmlns="http://www.w3.org/2000/svg">
<path fill-rule="evenodd" clip-rule="evenodd" d="M3.6243 1.37142C4.51777 0.500349 5.72957 0.0109863 6.99312 0.0109863C8.25667 0.0109863 9.46847 0.500348 10.3619 1.37142C11.2554 2.24249 11.7573 3.42391 11.7573 4.65579C11.7573 6.76635 12.2201 8.06305 12.6356 8.80564C12.8444 9.17901 13.046 9.42071 13.1822 9.56082C13.2504 9.63109 13.3029 9.67641 13.3323 9.7003C13.3455 9.71103 13.3541 9.71747 13.3574 9.71992C13.6567 9.92219 13.7889 10.2901 13.683 10.631C13.5756 10.9767 13.2488 11.2132 12.8783 11.2132H1.1079C0.737412 11.2132 0.410592 10.9767 0.30323 10.631C0.197356 10.2901 0.329511 9.92219 0.628822 9.71992M0.63942 9.71287L0.637476 9.71415L0.634107 9.71638L0.628822 9.71992C0.626584 9.72145 0.627886 9.7206 0.627886 9.7206L0.628822 9.71992C0.632158 9.71747 0.640752 9.71104 0.653962 9.7003C0.683377 9.67641 0.735791 9.63109 0.804081 9.56082C0.940222 9.42071 1.14179 9.17901 1.35068 8.80564C1.76615 8.06305 2.22889 6.76635 2.22889 4.65579C2.22889 3.42391 2.73084 2.24249 3.6243 1.37142M11.15 9.57382C10.5883 8.56264 10.0759 6.99488 10.0759 4.65579C10.0759 3.85869 9.75107 3.09424 9.17294 2.53061C8.59482 1.96698 7.81071 1.65033 6.99312 1.65033C6.17553 1.65033 5.39142 1.96698 4.8133 2.53061C4.23517 3.09424 3.91039 3.8587 3.91039 4.65579C3.91039 6.99488 3.39798 8.56264 2.83623 9.57382H11.15Z" fill="white"/>
<path fill-rule="evenodd" clip-rule="evenodd" d="M5.22739 12.4426C5.68399 12.2189 6.26886 12.3502 6.53373 12.7359C6.58041 12.8038 6.6474 12.8602 6.72801 12.8995C6.80862 12.9387 6.90001 12.9593 6.99304 12.9593C7.08606 12.9593 7.17746 12.9387 7.25806 12.8995C7.33867 12.8602 7.40567 12.8038 7.45235 12.7359C7.71722 12.3502 8.30209 12.2189 8.75869 12.4426C9.2153 12.6663 9.37073 13.1604 9.10586 13.546C8.89115 13.8587 8.58296 14.1182 8.21216 14.2986C7.84135 14.479 7.42095 14.5739 6.99304 14.5739C6.56513 14.5739 6.14472 14.479 5.77392 14.2986C5.40312 14.1182 5.09493 13.8587 4.88022 13.546C4.61535 13.1604 4.77078 12.6663 5.22739 12.4426Z" fill="white"/>
</svg>
