<svg width="17" height="17" viewBox="0 0 17 17" fill="none" xmlns="http://www.w3.org/2000/svg">
<path fill-rule="evenodd" clip-rule="evenodd" d="M8.22266 1.09559C4.28691 1.09559 1.09635 4.2839 1.09635 8.21689C1.09635 12.1499 4.28691 15.3382 8.22266 15.3382C12.1584 15.3382 15.349 12.1499 15.349 8.21689C15.349 4.2839 12.1584 1.09559 8.22266 1.09559ZM0 8.21689C0 3.67883 3.68141 0 8.22266 0C12.7639 0 16.4453 3.67883 16.4453 8.21689C16.4453 12.755 12.7639 16.4338 8.22266 16.4338C3.68141 16.4338 0 12.755 0 8.21689Z" fill="white"/>
<path fill-rule="evenodd" clip-rule="evenodd" d="M11.1788 5.26298C11.414 5.49807 11.414 5.87921 11.1788 6.1143L6.11868 11.1709C5.88343 11.4059 5.50202 11.4059 5.26677 11.1709C5.03152 10.9358 5.03152 10.5546 5.26677 10.3195L10.3268 5.26298C10.5621 5.0279 10.9435 5.0279 11.1788 5.26298Z" fill="white"/>
<path fill-rule="evenodd" clip-rule="evenodd" d="M5.26677 5.26298C5.50202 5.0279 5.88343 5.0279 6.11868 5.26298L11.1788 10.3195C11.414 10.5546 11.414 10.9358 11.1788 11.1709C10.9435 11.4059 10.5621 11.4059 10.3268 11.1709L5.26677 6.1143C5.03152 5.87921 5.03152 5.49807 5.26677 5.26298Z" fill="white"/>
</svg>
