<svg width="72" height="46" viewBox="0 0 72 46" fill="none" xmlns="http://www.w3.org/2000/svg">
<path d="M22.6261 33.5217C24.9049 33.5217 26.7522 31.674 26.7522 29.3947C26.7522 27.1153 24.9049 25.2676 22.6261 25.2676C20.3473 25.2676 18.5 27.1153 18.5 29.3947C18.5 31.674 20.3473 33.5217 22.6261 33.5217Z" stroke="#666666" stroke-width="3" stroke-linecap="round" stroke-linejoin="round"/>
<path d="M31.3734 20.6452C32.5243 21.7951 33.4373 23.1606 34.0602 24.6637C34.6831 26.1667 35.0037 27.7779 35.0037 29.405C35.0037 31.032 34.6831 32.6432 34.0602 34.1462C33.4373 35.6493 32.5243 37.0148 31.3734 38.1647M13.8787 38.144C12.7278 36.9942 11.8148 35.6286 11.1919 34.1256C10.569 32.6225 10.2484 31.0114 10.2484 29.3843C10.2484 27.7572 10.569 26.1461 11.1919 24.643C11.8148 23.14 12.7278 21.7745 13.8787 20.6246M37.2118 14.8054C41.0794 18.6751 43.2521 23.9229 43.2521 29.3946C43.2521 34.8664 41.0794 40.1141 37.2118 43.9838M8.04032 43.9838C4.1727 40.1141 2 34.8664 2 29.3946C2 23.9229 4.1727 18.6751 8.04032 14.8054" stroke="#666666" stroke-width="3" stroke-linecap="round" stroke-linejoin="round"/>
<path d="M21.915 11.6041V6.80204C21.915 5.52846 22.4246 4.30704 23.3316 3.40648C24.2386 2.50593 25.4688 2 26.7515 2H65.4431C66.7258 2 67.956 2.50593 68.863 3.40648C69.77 4.30704 70.2796 5.52846 70.2796 6.80204V35.6143C70.2796 36.8879 69.77 38.1093 68.863 39.0098C67.956 39.9104 66.7258 40.4163 65.4431 40.4163H50.9338" stroke="#666666" stroke-width="3" stroke-linecap="round" stroke-linejoin="round"/>
</svg>
