<svg width="73" height="46" viewBox="0 0 73 46" fill="none" xmlns="http://www.w3.org/2000/svg">
<path d="M22.9542 33.8766C25.233 33.8766 27.0803 32.0288 27.0803 29.7495C27.0803 27.4702 25.233 25.6224 22.9542 25.6224C20.6754 25.6224 18.8281 27.4702 18.8281 29.7495C18.8281 32.0288 20.6754 33.8766 22.9542 33.8766Z" stroke="#00AF82" stroke-width="3" stroke-linecap="round" stroke-linejoin="round"/>
<path d="M31.7015 21.0001C32.8524 22.15 33.7654 23.5155 34.3883 25.0185C35.0112 26.5216 35.3319 28.1327 35.3319 29.7598C35.3319 31.3869 35.0112 32.998 34.3883 34.5011C33.7654 36.0041 32.8524 37.3696 31.7015 38.5195M14.2069 38.4989C13.056 37.349 12.143 35.9835 11.52 34.4804C10.8971 32.9774 10.5765 31.3663 10.5765 29.7392C10.5765 28.1121 10.8971 26.501 11.52 24.9979C12.143 23.4948 13.056 22.1293 14.2069 20.9795M37.5399 15.1603C41.4075 19.03 43.5802 24.2777 43.5802 29.7495C43.5802 35.2213 41.4075 40.469 37.5399 44.3387M8.36844 44.3387C4.50083 40.469 2.32812 35.2213 2.32812 29.7495C2.32812 24.2777 4.50083 19.03 8.36844 15.1603" stroke="#00AF82" stroke-width="3" stroke-linecap="round" stroke-linejoin="round"/>
<path d="M22.2432 11.9589V7.1569C22.2432 5.88332 22.7527 4.6619 23.6597 3.76134C24.5667 2.86079 25.7969 2.35486 27.0796 2.35486H65.7712C67.054 2.35486 68.2841 2.86079 69.1911 3.76134C70.0981 4.6619 70.6077 5.88332 70.6077 7.1569V35.9691C70.6077 37.2427 70.0981 38.4641 69.1911 39.3647C68.2841 40.2652 67.054 40.7712 65.7712 40.7712H51.2619" stroke="#00AF82" stroke-width="3" stroke-linecap="round" stroke-linejoin="round"/>
</svg>
