<svg width="130" height="37" viewBox="0 0 130 37" fill="none" xmlns="http://www.w3.org/2000/svg">
<path fill-rule="evenodd" clip-rule="evenodd" d="M87.7153 13.99H91.2921L92.2559 16.7537H93.7574L90.2617 7.36052H89.2702L85.4519 16.7537H86.7106L87.7153 13.99ZM89.5644 8.75462H89.5901C90.0591 10.4456 90.5143 11.7473 90.9834 13.0497H88.0768C88.5861 11.7473 89.0822 10.4456 89.5644 8.75462ZM88.6485 19.8675L84.8871 29.12H86.127L87.1165 26.3976H90.6413L91.5905 29.12H93.0684L89.6234 19.8675H88.6485ZM87.4745 25.4719C87.9755 24.1885 88.4626 22.9064 88.9379 21.2413H88.9635C89.4256 22.9064 89.8753 24.1892 90.3374 25.4719H87.4745ZM85.1383 19.8675H77.9339V20.7932H80.8891V29.12H82.1692V20.7932H85.1383V19.8675ZM63.947 19.8675H61.624V29.12H62.9048V20.7932H63.7888C65.1606 20.7932 65.7275 21.5326 65.7275 22.5507C65.7275 23.9266 64.9483 24.5869 63.709 24.652L63.2879 24.666V25.5111H63.6945C65.767 25.5111 67.0999 24.0974 67.0999 22.536C67.1006 20.74 65.8989 19.8675 63.947 19.8675ZM53.4496 13.99H57.0271L57.9916 16.7537H59.4911L55.9954 7.36052H55.0038L51.1855 16.7537H52.4463L53.4496 13.99ZM55.3001 8.75462H55.3244C55.7935 10.4456 56.2486 11.7473 56.7177 13.0497H53.8111C54.3211 11.7473 54.8165 10.4456 55.3001 8.75462ZM48.0243 16.9141C49.2309 16.9141 50.3425 16.4848 50.9718 16.0549L50.4639 15.2777C49.9144 15.6537 49.1109 15.9765 48.0916 15.9765C46.0419 15.9765 44.4093 14.3786 44.4093 12.0036C44.4093 9.80282 45.7741 8.13844 48.0916 8.13844C49.097 8.13844 50.101 8.59427 50.543 8.95698L51.0794 8.15315C50.4632 7.66861 49.5251 7.19877 48.1859 7.19877C44.8235 7.19877 42.9744 9.66908 42.9744 12.0302C42.975 14.6188 44.675 16.9141 48.0243 16.9141ZM46.5679 19.8675H43.6127V29.12H46.3569C49.6285 29.12 51.5824 27.2833 51.5824 24.2172C51.5824 21.9954 50.2884 19.8675 46.5679 19.8675ZM46.3181 28.195H44.8936V20.7932H46.5949C49.0234 20.7932 50.1704 22.1278 50.1704 24.1892C50.1697 26.8982 48.9166 28.195 46.3181 28.195ZM55.4486 24.7052H58.6542V23.7809H55.4486V20.7939H58.7202V19.8675H54.1684V29.12H59.2891V28.1957H55.4486V24.7052ZM75.1619 25.6967C75.1619 27.0187 74.5805 28.3932 72.8527 28.3932C71.2034 28.3932 70.4908 27.3891 70.4908 25.4719V19.8675H69.2107V25.5244C69.2107 27.9037 70.2528 29.2782 72.8527 29.2782C75.0821 29.2782 76.3623 27.798 76.3623 25.7226V19.8675H75.1619V25.6967ZM72.5516 13.99H76.1285L77.0929 16.7537H78.5931L75.0967 7.36052H74.1052L70.2868 16.7537H71.5455L72.5516 13.99ZM74.4001 8.75462H74.4278C74.8969 10.4456 75.352 11.7473 75.819 13.0497H72.9145C73.4224 11.7473 73.9178 10.4456 74.4001 8.75462ZM110.649 16.9141C113.542 16.9141 115.337 14.7 115.337 11.8957C115.337 9.26577 113.356 7.19807 110.649 7.19807C107.942 7.19807 105.96 9.26577 105.96 11.8957C105.96 14.7 107.755 16.9141 110.649 16.9141ZM110.649 8.13774C112.965 8.13774 113.903 10.1368 113.903 11.8957C113.903 13.7345 113.073 15.9765 110.649 15.9765C108.222 15.9765 107.393 13.7352 107.393 11.8957C107.393 10.1368 108.331 8.13774 110.649 8.13774ZM105.531 11.7739C105.531 9.51994 104.218 7.36052 100.439 7.36052H97.4404V16.7537H100.226C103.549 16.753 105.531 14.8877 105.531 11.7739ZM98.7387 15.8133V8.29879H100.466C102.932 8.29879 104.097 9.65368 104.097 11.7466C104.097 14.4991 102.825 15.8126 100.185 15.8126H98.7387V15.8133ZM80.4804 12.862H81.8612L84.0302 16.9141L85.3429 16.5129L83.0137 12.514C83.9108 11.937 84.5804 11.157 84.5804 9.77621C84.5804 8.15244 83.3883 7.36122 81.8618 7.36122H79.1815V16.7544H80.4811V12.862H80.4804ZM80.4804 8.29879H81.5919C82.4627 8.29879 83.1871 8.74131 83.1871 9.89455C83.1871 10.6865 82.8791 11.9216 81.2179 11.9216H80.4804V8.29879ZM55.3244 5.35934L56.6524 6.66102H57.4421L55.7699 4.62203H54.897L53.2234 6.66102H53.9998L55.3244 5.35934ZM102.832 24.2165C102.832 21.9954 101.54 19.8675 97.8179 19.8675H94.8614V29.12H97.607C100.879 29.12 102.832 27.2826 102.832 24.2165ZM96.1422 28.195V20.7932H97.8443C100.273 20.7932 101.42 22.1278 101.42 24.1892C101.42 26.8989 100.167 28.195 97.5681 28.195H96.1422ZM119.062 23.8986C117.874 23.0394 117.308 22.55 117.308 21.889C117.308 21.1762 117.821 20.6335 118.745 20.6335C119.3 20.6335 119.893 20.9647 120.342 21.2945L120.949 20.6335C120.434 20.0524 119.631 19.7093 118.666 19.7093C117.229 19.7093 116.026 20.6468 116.026 21.8897C116.026 23.1984 116.885 23.7676 117.65 24.3628C118.403 24.9167 119.788 25.6694 119.788 26.8331C119.788 27.8638 119.089 28.3526 118.179 28.3526C117.308 28.3526 116.714 27.9303 116.173 27.5466L115.606 28.314C116.266 28.9617 117.321 29.2782 118.206 29.2782C119.684 29.2782 121.069 28.3281 121.069 26.8597C121.069 25.6694 120.329 24.8235 119.062 23.8986ZM109.455 19.7093C106.792 19.7093 104.838 21.7448 104.838 24.3355C104.838 27.0992 106.606 29.2782 109.455 29.2782C112.307 29.2782 114.075 27.0992 114.075 24.3355C114.075 21.7441 112.121 19.7093 109.455 19.7093ZM109.455 28.3526C107.068 28.3526 106.25 26.1448 106.25 24.3355C106.25 22.6046 107.174 20.6342 109.455 20.6342C111.737 20.6342 112.663 22.6053 112.663 24.3355C112.663 26.1448 111.844 28.3526 109.455 28.3526ZM61.1251 9.10332H61.1515C61.5143 10.3385 63.4565 14.3513 64.6222 16.7537H65.1432C66.404 14.352 68.5335 10.2047 68.9088 9.10332H68.9352V16.7537H70.2355V7.35982H69.015C67.7036 9.85464 66.3776 12.3649 65.051 15.0081C63.8589 12.3649 62.6516 9.85464 61.4477 7.35982H60.0538V16.753H61.1258V9.10332H61.1251ZM118.122 15.9758C117.238 15.9758 116.634 15.5459 116.086 15.1552L115.511 15.9345C116.18 16.5913 117.25 16.9134 118.149 16.9134C119.649 16.9134 121.055 15.9471 121.055 14.4585C121.055 13.2499 120.305 12.3915 119.019 11.4518C117.814 10.5793 117.238 10.0829 117.238 9.41281C117.238 8.6874 117.761 8.13774 118.697 8.13774C119.261 8.13774 119.863 8.47314 120.318 8.80923L120.935 8.13774C120.412 7.54747 119.595 7.19807 118.618 7.19807C117.157 7.19807 115.94 8.15244 115.94 9.41281C115.94 10.7411 116.81 11.3181 117.585 11.9223C118.35 12.486 119.758 13.2506 119.758 14.4319C119.758 15.4773 119.047 15.9758 118.122 15.9758ZM0 36.6401H129.122V0H0V36.6401ZM1.30307 14.1483H3.26601V14.8408L1.30307 14.8401V14.1483ZM1.30307 15.5179H3.26532V26.6175H1.30307V15.5179ZM35.1559 35.3336H1.30238V28.9442H35.1559V35.3336ZM35.1559 20.3233H10.9929C13.2618 22.5969 17.9953 25.7926 22.1876 26.6189H7.08156V3.88822H3.26601V13.4621H1.30307V1.31008H35.1559V20.3233ZM127.818 35.3245H36.4236V1.30658H127.818V35.3245Z" fill="black"/>
</svg>
