<svg width="12" height="12" viewBox="0 0 12 12" fill="none" xmlns="http://www.w3.org/2000/svg">
<path fill-rule="evenodd" clip-rule="evenodd" d="M1.29712 0H7.13414C7.85052 0 8.43126 0.580737 8.43126 1.29711V3.54216H4.83928C4.1229 3.54216 3.54216 4.1229 3.54216 4.83927V8.43123H1.29712C0.580739 8.43123 0 7.85049 0 7.13411V1.29711C0 0.580737 0.580739 0 1.29712 0Z" fill="#C4C4C4"/>
<path d="M10.8401 4.46094H5.62079C4.98022 4.46094 4.46094 4.98022 4.46094 5.62079V10.8401C4.46094 11.4807 4.98022 12 5.62079 12H10.8401C11.4807 12 12 11.4807 12 10.8401V5.62079C12 4.98022 11.4807 4.46094 10.8401 4.46094Z" fill="#C4C4C4"/>
</svg>
