<svg width="10" height="10" viewBox="0 0 10 10" fill="none" xmlns="http://www.w3.org/2000/svg">
<g opacity="0.3">
<path fill-rule="evenodd" clip-rule="evenodd" d="M0.408461 0.448731C0.669994 0.187198 1.02471 0.0402699 1.39457 0.0402699H4.52558C4.80172 0.0402699 5.02558 0.264127 5.02558 0.54027C5.02558 0.816412 4.80172 1.04027 4.52558 1.04027H1.39457C1.28993 1.04027 1.18956 1.08184 1.11557 1.15584C1.04157 1.22983 1 1.3302 1 1.43484V7.69686C1 7.8015 1.04157 7.90187 1.11557 7.97586C1.18956 8.04986 1.28993 8.09143 1.39457 8.09143H7.65659C7.76123 8.09143 7.8616 8.04986 7.93559 7.97586C8.00959 7.90187 8.05116 7.8015 8.05116 7.69686V4.56585C8.05116 4.28971 8.27502 4.06585 8.55116 4.06585C8.8273 4.06585 9.05116 4.28971 9.05116 4.56585V7.69686C9.05116 8.06672 8.90423 8.42144 8.6427 8.68297C8.38117 8.9445 8.02645 9.09143 7.65659 9.09143H1.39457C1.02471 9.09143 0.669994 8.9445 0.408461 8.68297C0.146928 8.42144 0 8.06672 0 7.69686V1.43484C0 1.06498 0.146928 0.710264 0.408461 0.448731Z" fill="#666666"/>
<path fill-rule="evenodd" clip-rule="evenodd" d="M7.61375 0.956779C7.49986 0.956779 7.39063 1.00202 7.3101 1.08256L3.33826 5.05439L3.13583 5.86414L3.94558 5.6617L7.91741 1.68987C7.99794 1.60934 8.04319 1.50011 8.04319 1.38621C8.04319 1.27232 7.99794 1.16309 7.91741 1.08256C7.83687 1.00202 7.72764 0.956779 7.61375 0.956779ZM6.63356 0.40602C6.89352 0.146056 7.24611 1.00369e-05 7.61375 1.00369e-05C7.9814 1.00369e-05 8.33398 0.146056 8.59395 0.40602C8.85391 0.665983 8.99996 1.01857 8.99996 1.38621C8.99996 1.75386 8.85391 2.10644 8.59395 2.36641L4.52842 6.43193C4.46711 6.49324 4.39029 6.53674 4.30618 6.55777L2.59438 6.98572C2.43135 7.02647 2.2589 6.97871 2.14008 6.85988C2.02126 6.74106 1.97349 6.56861 2.01425 6.40559L2.4422 4.69379C2.46323 4.60967 2.50672 4.53286 2.56803 4.47155L6.63356 0.40602Z" fill="#666666"/>
</g>
</svg>
