<svg width="21" height="21" viewBox="0 0 21 21" fill="none" xmlns="http://www.w3.org/2000/svg">
<path fill-rule="evenodd" clip-rule="evenodd" d="M2.98666 1.99998C2.70376 1.99998 2.43245 2.11704 2.2324 2.32542C2.03236 2.53379 1.91998 2.81641 1.91998 3.1111V17.8889C1.91998 18.1836 2.03236 18.4662 2.2324 18.6746C2.43245 18.883 2.70376 19 2.98666 19H7.04001C7.5702 19 8 19.4477 8 20C8 20.5523 7.5702 21 7.04001 21H2.98666C2.19455 21 1.43488 20.6722 0.874773 20.0888C0.314665 19.5053 0 18.714 0 17.8889V3.1111C0 2.28599 0.314665 1.49467 0.874773 0.91122C1.43488 0.327776 2.19455 0 2.98666 0H7.04001C7.5702 0 8 0.44771 8 0.999988C8 1.55227 7.5702 1.99998 7.04001 1.99998H2.98666Z" fill="white"/>
<path fill-rule="evenodd" clip-rule="evenodd" d="M14.2817 5.27993C14.6573 4.90669 15.2663 4.90669 15.6419 5.27993L20.7183 10.3242C21.0939 10.6974 21.0939 11.3026 20.7183 11.6758L15.6419 16.7201C15.2663 17.0933 14.6573 17.0933 14.2817 16.7201C13.9061 16.3468 13.9061 15.7417 14.2817 15.3684L18.678 11L14.2817 6.63155C13.9061 6.25831 13.9061 5.65317 14.2817 5.27993Z" fill="white"/>
<path fill-rule="evenodd" clip-rule="evenodd" d="M6 11C6 10.4477 6.44772 10 7 10H19.6668C20.2191 10 20.6668 10.4477 20.6668 11C20.6668 11.5523 20.2191 12 19.6668 12H7C6.44772 12 6 11.5523 6 11Z" fill="white"/>
</svg>
