<svg width="15" height="10" viewBox="0 0 15 10" fill="none" xmlns="http://www.w3.org/2000/svg">
<path d="M5.81104 9L5.2417 7.13086H2.37891L1.80957 9H0.015625L2.78711 1.11523H4.82275L7.60498 9H5.81104ZM4.84424 5.73438C4.31787 4.04069 4.02067 3.08285 3.95264 2.86084C3.88818 2.63883 3.84163 2.46338 3.81299 2.33447C3.69482 2.79281 3.35645 3.92611 2.79785 5.73438H4.84424ZM11.8105 2.88232C12.5195 2.88232 13.0745 3.15983 13.4756 3.71484C13.8766 4.26628 14.0771 5.0236 14.0771 5.98682C14.0771 6.97868 13.8695 7.74674 13.4541 8.29102C13.0423 8.83529 12.4801 9.10742 11.7676 9.10742C11.0622 9.10742 10.509 8.8514 10.1079 8.33936H9.99512L9.72119 9H8.46973V0.642578H10.1079V2.58691C10.1079 2.83398 10.0864 3.22965 10.0435 3.77393H10.1079C10.491 3.17952 11.0586 2.88232 11.8105 2.88232ZM11.2842 4.19287C10.8796 4.19287 10.5841 4.3182 10.3979 4.56885C10.2118 4.81592 10.1151 5.22591 10.1079 5.79883V5.97607C10.1079 6.62061 10.2028 7.08252 10.3926 7.36182C10.5859 7.64111 10.8903 7.78076 11.3057 7.78076C11.6423 7.78076 11.909 7.62679 12.106 7.31885C12.3065 7.00732 12.4067 6.55615 12.4067 5.96533C12.4067 5.37451 12.3065 4.93229 12.106 4.63867C11.9054 4.34147 11.6315 4.19287 11.2842 4.19287Z" fill="#666666"/>
</svg>
