<svg width="14" height="14" viewBox="0 0 14 14" fill="none" xmlns="http://www.w3.org/2000/svg">
<path d="M6 7.76024C6.2517 8.11522 6.57282 8.40895 6.94158 8.6215C7.31035 8.83404 7.71813 8.96043 8.13726 8.9921C8.5564 9.02377 8.97709 8.95997 9.37081 8.80503C9.76452 8.6501 10.122 8.40764 10.4191 8.09412L12.1774 6.23922C12.7112 5.65615 13.0066 4.87523 12.9999 4.06465C12.9932 3.25406 12.685 2.47867 12.1417 1.90548C11.5984 1.33229 10.8634 1.00716 10.095 1.00012C9.32666 0.993073 8.58642 1.30468 8.03373 1.86782L7.02566 2.92512" stroke="#666666" stroke-linecap="round" stroke-linejoin="round"/>
<path d="M9 6.23976C8.71235 5.88478 8.34535 5.59105 7.92391 5.3785C7.50246 5.16596 7.03643 5.03957 6.55741 5.0079C6.0784 4.97623 5.59761 5.04003 5.14765 5.19497C4.6977 5.3499 4.2891 5.59236 3.94958 5.90588L1.94013 7.76078C1.33007 8.34385 0.992496 9.12477 1.00013 9.93536C1.00776 10.7459 1.35998 11.5213 1.98092 12.0945C2.60187 12.6677 3.44186 12.9928 4.31998 12.9999C5.1981 13.0069 6.04409 12.6953 6.67573 12.1322L7.82112 11.0749" stroke="#666666" stroke-linecap="round" stroke-linejoin="round"/>
</svg>
