<svg width="9" height="10" viewBox="0 0 9 10" fill="none" xmlns="http://www.w3.org/2000/svg">
<path fill-rule="evenodd" clip-rule="evenodd" d="M0 2.5C0 2.22386 0.213575 2 0.477032 2H8.52297C8.78642 2 9 2.22386 9 2.5C9 2.77614 8.78642 3 8.52297 3H0.477032C0.213575 3 0 2.77614 0 2.5Z" fill="#EB5757"/>
<path fill-rule="evenodd" clip-rule="evenodd" d="M7 0.964301V2H7.5C7.75786 2 8 2.02302 8 2.2893V8.6143C8 8.98032 7.86059 9.33228 7.61102 9.5925C7.36129 9.85288 7.02163 10 6.6665 10H2.3335C1.97837 10 1.63871 9.85288 1.38898 9.5925C1.13941 9.33228 1 8.98032 1 8.6143V2.2893C1 2.02302 1.24214 2 1.5 2H2V0.909105V6.88163e-06L3.6334 1.38039e-05L5.5 6.88163e-06L7 0V0.964301ZM2 8.63638V3H7V8.6143C7 8.63612 7.00085 8.65774 7.00169 8.67898C7.00521 8.76799 7.00847 8.85042 6.94754 8.91394C6.87223 8.99247 6.77105 9.03573 6.6665 9.03573L2.3335 9.09092C2.22895 9.09092 2.05246 8.91394 2.05246 8.91394C1.97699 8.83526 2 8.63638 2 8.63638ZM6 1H3V2H6V1Z" fill="#EB5757"/>
<path fill-rule="evenodd" clip-rule="evenodd" d="M3.5 4C3.77614 4 4 4.22386 4 4.5V7.31111C4 7.58725 3.77614 7.81111 3.5 7.81111C3.22386 7.81111 3 7.58725 3 7.31111V4.5C3 4.22386 3.22386 4 3.5 4Z" fill="#EB5757"/>
<path fill-rule="evenodd" clip-rule="evenodd" d="M5.5 4C5.77614 4 6 4.22386 6 4.5V7.31111C6 7.58725 5.77614 7.81111 5.5 7.81111C5.22386 7.81111 5 7.58725 5 7.31111V4.5C5 4.22386 5.22386 4 5.5 4Z" fill="#EB5757"/>
</svg>
