<svg width="14" height="17" viewBox="0 0 14 17" fill="none" xmlns="http://www.w3.org/2000/svg">
<path d="M8.71366 1H2.60523C2.20022 1 1.81179 1.15645 1.5254 1.43495C1.23902 1.71344 1.07813 2.09115 1.07812 2.485V14.365C1.07813 14.7588 1.23902 15.1366 1.5254 15.4151C1.81179 15.6935 2.20022 15.85 2.60523 15.85H11.7679C12.1729 15.85 12.5613 15.6935 12.8477 15.4151C13.1341 15.1366 13.295 14.7588 13.295 14.365V5.455L8.71366 1Z" stroke="white" stroke-linecap="round" stroke-linejoin="round"/>
<path d="M8.71387 1V5.455H13.2952" stroke="white" stroke-linecap="round" stroke-linejoin="round"/>
<path d="M10.2412 9.16748H4.13281" stroke="white" stroke-linecap="round" stroke-linejoin="round"/>
<path d="M10.2412 12.1375H4.13281" stroke="white" stroke-linecap="round" stroke-linejoin="round"/>
<path d="M5.65992 6.19751H4.89637H4.13281" stroke="white" stroke-linecap="round" stroke-linejoin="round"/>
</svg>
