<svg width="14" height="13" viewBox="0 0 14 13" fill="none" xmlns="http://www.w3.org/2000/svg">
<path fill-rule="evenodd" clip-rule="evenodd" d="M1.97436 1C1.47872 1 1 1.53976 1 2V11C1 11.4602 1.50436 12 2 12H12C12.4956 12 13 11.4602 13 11V2C13 1.53976 12.4956 1 12 1H6.98718H1.97436ZM0 2C0 0.987478 0.883951 0 1.97436 0H12C13.0904 0 14 0.987478 14 2V11C14 12.0125 13.0904 13 12 13H2C0.909592 13 0 12.0125 0 11V2Z" fill="#666666"/>
<path fill-rule="evenodd" clip-rule="evenodd" d="M4.5 3C4.22386 3 4 3.22386 4 3.5C4 3.77614 4.22386 4 4.5 4C4.77614 4 5 3.77614 5 3.5C5 3.22386 4.77614 3 4.5 3ZM3 3.5C3 2.67157 3.67157 2 4.5 2C5.32843 2 6 2.67157 6 3.5C6 4.32843 5.32843 5 4.5 5C3.67157 5 3 4.32843 3 3.5Z" fill="#666666"/>
<path fill-rule="evenodd" clip-rule="evenodd" d="M9.05726 4C9.19366 4 9.32447 4.05057 9.42091 4.14059L13.5001 8C13.701 8.18745 13.701 8.81255 13.5001 9C13.2993 9.18745 13.201 9.18745 13.0001 9L9.05726 5.15882L1.50012 12.5C1.29927 12.6875 1.35159 12.0469 1.15075 11.8594C0.949905 11.672 0.799159 11.6875 1 11.5L8.6936 4.14059C8.79005 4.05057 8.92086 4 9.05726 4Z" fill="#666666"/>
</svg>
