<svg width="17" height="12" viewBox="0 0 17 12" fill="none" xmlns="http://www.w3.org/2000/svg">
<path d="M8.75397 7.36748C9.60887 7.36748 10.3019 6.73885 10.3019 5.9634C10.3019 5.18795 9.60887 4.55933 8.75397 4.55933C7.89908 4.55933 7.20605 5.18795 7.20605 5.9634C7.20605 6.73885 7.89908 7.36748 8.75397 7.36748Z" stroke="#666666" stroke-linecap="round" stroke-linejoin="round"/>
<path d="M12.0352 2.98677C12.4669 3.37797 12.8094 3.84253 13.0431 4.35389C13.2768 4.86524 13.3971 5.41337 13.3971 5.96692C13.3971 6.52047 13.2768 7.06859 13.0431 7.57995C12.8094 8.09131 12.4669 8.55587 12.0352 8.94707M5.47198 8.94005C5.04022 8.54885 4.6977 8.08429 4.46401 7.57293C4.23031 7.06157 4.11003 6.51345 4.11003 5.9599C4.11003 5.40635 4.23031 4.85822 4.46401 4.34687C4.6977 3.83551 5.04022 3.37095 5.47198 2.97975M14.2255 1C15.6764 2.31652 16.4915 4.10186 16.4915 5.96341C16.4915 7.82496 15.6764 9.6103 14.2255 10.9268M3.28167 10.9268C1.83072 9.6103 1.01562 7.82496 1.01562 5.96341C1.01562 4.10186 1.83072 2.31652 3.28167 1" stroke="#666666" stroke-linecap="round" stroke-linejoin="round"/>
</svg>
